<svg xmlns="http://www.w3.org/2000/svg" xmlns:xlink="http://www.w3.org/1999/xlink" width="500" zoomAndPan="magnify" viewBox="0 0 375 374.999991" height="500" preserveAspectRatio="xMidYMid meet" version="1.0"><defs><g/><clipPath id="c964ed4d13"><path d="M 82.175781 189 L 303.425781 189 L 303.425781 252.164062 L 82.175781 252.164062 Z M 82.175781 189 " clip-rule="nonzero"/></clipPath><clipPath id="96924a9e0d"><path d="M 82.175781 115 L 303.425781 115 L 303.425781 159 L 82.175781 159 Z M 82.175781 115 " clip-rule="nonzero"/></clipPath><clipPath id="407d56cccd"><rect x="0" width="111" y="0" height="15"/></clipPath></defs><rect x="-37.5" width="450" fill="#ffffff" y="-37.499999" height="449.999989" fill-opacity="1"/><rect x="-37.5" width="450" fill="#eafdff" y="-37.499999" height="449.999989" fill-opacity="1"/><g clip-path="url(#c964ed4d13)"><path fill="#42bac6" d="M 196.4375 194.367188 C 195.796875 194.402344 195.171875 194.539062 194.582031 194.757812 C 193.996094 195 193.4375 195.300781 192.933594 195.691406 C 190.890625 197.273438 189.558594 199.710938 188.488281 202.164062 C 186.375 207.140625 185.191406 212.539062 184.089844 217.921875 C 183.003906 223.320312 182.097656 228.773438 180.988281 234.246094 C 180.421875 236.984375 179.8125 239.71875 178.96875 242.46875 C 178.546875 243.84375 178.066406 245.214844 177.425781 246.59375 C 176.761719 247.957031 176.015625 249.386719 174.546875 250.65625 C 173.824219 251.261719 172.808594 251.824219 171.699219 251.960938 C 170.5625 252.15625 169.574219 251.914062 168.671875 251.652344 C 166.945312 251.035156 165.636719 250.09375 164.453125 249.121094 C 162.132812 247.140625 160.242188 244.933594 158.496094 242.660156 C 155.023438 238.105469 152.101562 233.273438 149.375 228.355469 C 144.023438 218.464844 139.542969 208.171875 135.730469 197.625 C 135.257812 196.292969 134.792969 194.960938 134.335938 193.628906 L 82.175781 191.726562 L 137.898438 189.699219 L 139.925781 189.625 L 139.925781 190.414062 L 140.296875 190.414062 C 140.792969 192.121094 141.320312 193.824219 141.871094 195.523438 C 145.238281 205.898438 149.289062 216.101562 154.15625 225.84375 C 156.597656 230.699219 159.234375 235.476562 162.300781 239.847656 C 163.828125 242.03125 165.5 244.109375 167.324219 245.792969 C 168.226562 246.621094 169.214844 247.320312 170.082031 247.667969 C 170.496094 247.789062 170.886719 247.921875 171.140625 247.855469 C 171.398438 247.855469 171.664062 247.742188 172.007812 247.492188 C 172.6875 246.996094 173.394531 245.972656 173.960938 244.886719 C 174.546875 243.78125 175.042969 242.554688 175.484375 241.3125 C 176.386719 238.804688 177.109375 236.164062 177.789062 233.511719 C 179.136719 228.195312 180.289062 222.769531 181.644531 217.371094 C 183.023438 211.988281 184.46875 206.558594 186.925781 201.445312 C 188.191406 198.925781 189.734375 196.386719 192.191406 194.664062 C 192.808594 194.242188 193.492188 193.917969 194.199219 193.675781 C 194.917969 193.457031 195.667969 193.335938 196.410156 193.335938 C 197.914062 193.335938 199.339844 193.820312 200.582031 194.519531 L 200.207031 195.242188 C 199.019531 194.644531 197.714844 194.304688 196.4375 194.367188 Z M 247.699219 189.699219 L 245.671875 189.625 L 245.671875 190.414062 L 245.59375 190.414062 C 244.074219 195.34375 242.332031 200.210938 240.410156 205.019531 C 237.140625 213.203125 233.34375 221.207031 228.871094 228.789062 C 226.625 232.574219 224.230469 236.269531 221.539062 239.6875 C 220.191406 241.390625 218.769531 243.03125 217.234375 244.5 C 215.785156 245.871094 214.210938 247.15625 212.5625 247.910156 C 211.394531 247.738281 210.226562 247.058594 209.179688 246.089844 C 208.019531 245.027344 207.019531 243.671875 206.113281 242.257812 C 204.328125 239.382812 202.917969 236.203125 201.675781 232.953125 C 199.207031 226.441406 197.308594 219.671875 195.640625 212.851562 L 194.84375 213.023438 C 195.488281 216.488281 196.191406 219.941406 196.996094 223.382812 C 197.800781 226.816406 198.707031 230.242188 199.8125 233.621094 C 200.933594 236.988281 202.207031 240.335938 203.984375 243.53125 C 204.894531 245.117188 205.914062 246.675781 207.277344 248.0625 C 207.96875 248.753906 208.738281 249.402344 209.636719 249.921875 C 210.539062 250.441406 211.585938 250.824219 212.699219 250.945312 L 213.015625 250.976562 L 213.363281 250.847656 C 215.78125 249.9375 217.695312 248.476562 219.476562 246.957031 C 221.242188 245.414062 222.832031 243.742188 224.34375 242.011719 C 227.355469 238.535156 230.023438 234.84375 232.488281 231.027344 C 237.414062 223.402344 241.632812 215.367188 245.339844 207.09375 C 247.289062 202.6875 249.078125 198.203125 250.695312 193.644531 L 303.429688 191.722656 Z M 247.699219 189.699219 " fill-opacity="1" fill-rule="nonzero"/></g><g clip-path="url(#96924a9e0d)"><path fill="#42bac6" d="M 188.574219 136.25 C 190.5 135.445312 192.332031 134.398438 194.101562 133.21875 C 195.875 132.027344 197.574219 130.6875 199.308594 129.332031 C 202.757812 126.609375 206.164062 123.617188 210.132812 121.023438 C 212.101562 119.726562 214.203125 118.507812 216.476562 117.484375 C 218.75 116.476562 221.222656 115.730469 223.789062 115.324219 C 226.359375 114.925781 229.019531 114.933594 231.59375 115.300781 C 234.183594 115.648438 236.640625 116.429688 238.976562 117.363281 C 240.136719 117.84375 241.257812 118.378906 242.359375 118.945312 C 242.902344 119.230469 243.4375 119.539062 243.972656 119.839844 L 245.582031 120.835938 C 246.765625 121.648438 247.738281 122.445312 248.71875 123.34375 C 249.683594 124.238281 250.59375 125.203125 251.414062 126.226562 C 253.054688 128.273438 254.378906 130.523438 255.414062 132.835938 C 256.445312 135.15625 257.191406 137.542969 257.742188 139.9375 C 258.804688 144.730469 259.082031 149.519531 258.960938 154.210938 C 258.957031 154.304688 258.949219 154.398438 258.945312 154.496094 L 303.417969 156.3125 L 253.835938 158.34375 L 251.804688 158.429688 L 251.804688 157.9375 L 251.589844 157.9375 C 251.621094 156.6875 251.628906 155.4375 251.597656 154.195312 C 251.492188 149.957031 251 145.769531 249.929688 141.871094 C 249.402344 139.929688 248.726562 138.054688 247.875 136.328125 C 247.039062 134.578125 246.050781 132.964844 244.863281 131.542969 C 244.265625 130.839844 243.648438 130.164062 242.972656 129.539062 C 242.324219 128.921875 241.550781 128.304688 240.902344 127.84375 L 239.660156 127.074219 L 238.363281 126.316406 C 237.488281 125.839844 236.609375 125.378906 235.71875 124.980469 C 232.144531 123.386719 228.460938 122.566406 224.738281 122.914062 C 221.015625 123.230469 217.234375 124.667969 213.53125 126.683594 C 209.839844 128.71875 206.15625 131.199219 202.296875 133.609375 C 200.371094 134.824219 198.351562 135.960938 196.25 136.992188 C 194.132812 138.007812 191.917969 138.917969 189.574219 139.453125 C 187.242188 140.003906 184.804688 140.199219 182.441406 139.921875 C 180.078125 139.648438 177.824219 138.910156 175.792969 137.871094 L 176.078125 137.113281 C 178.226562 137.636719 180.394531 137.871094 182.503906 137.722656 C 184.617188 137.546875 186.652344 137.066406 188.574219 136.25 Z M 131.757812 158.347656 L 133.785156 158.429688 L 133.785156 157.941406 L 133.953125 157.941406 C 133.894531 157.242188 133.847656 156.542969 133.796875 155.855469 C 133.792969 155.773438 133.789062 155.691406 133.78125 155.613281 L 133.78125 154.203125 L 133.695312 154.210938 C 133.582031 152.121094 133.546875 150.035156 133.578125 147.972656 C 133.605469 145.375 133.796875 142.800781 134.171875 140.324219 C 134.539062 137.839844 135.128906 135.445312 136.023438 133.292969 C 136.882812 131.125 138.042969 129.183594 139.558594 127.699219 C 141.019531 126.179688 142.953125 125.132812 145.132812 124.394531 C 145.691406 124.238281 146.238281 124.039062 146.8125 123.90625 L 148.589844 123.566406 C 149.183594 123.460938 149.804688 123.445312 150.421875 123.378906 C 151.039062 123.316406 151.65625 123.25 152.296875 123.28125 L 154.203125 123.28125 C 154.835938 123.257812 155.484375 123.378906 156.136719 123.40625 L 158.074219 123.542969 C 158.722656 123.625 159.382812 123.726562 160.03125 123.820312 L 161.996094 124.109375 C 162.652344 124.21875 163.300781 124.378906 163.953125 124.515625 L 165.914062 124.9375 L 166.902344 125.148438 L 167.878906 125.410156 L 171.804688 126.457031 L 175.691406 127.707031 L 177.65625 128.316406 L 179.585938 129.011719 C 180.875 129.484375 182.164062 129.960938 183.464844 130.410156 C 184.769531 130.871094 186.027344 131.421875 187.320312 131.917969 L 191.207031 133.414062 L 191.585938 132.699219 C 189.25 131.179688 186.90625 129.667969 184.496094 128.242188 C 183.285156 127.550781 182.054688 126.886719 180.828125 126.203125 L 178.988281 125.195312 L 177.089844 124.261719 C 172.066406 121.738281 166.757812 119.660156 161.152344 118.214844 C 160.445312 118.042969 159.75 117.847656 159.035156 117.6875 L 156.867188 117.296875 C 156.136719 117.183594 155.421875 117.019531 154.675781 116.972656 L 152.4375 116.785156 C 151.699219 116.699219 150.9375 116.703125 150.167969 116.722656 C 149.402344 116.738281 148.640625 116.707031 147.871094 116.777344 L 145.535156 117.03125 C 144.753906 117.136719 143.96875 117.339844 143.179688 117.503906 C 140.0625 118.265625 136.890625 119.742188 134.328125 122.050781 C 131.746094 124.316406 129.914062 127.167969 128.574219 130.0625 C 125.96875 135.933594 125.242188 142 125.132812 147.835938 C 125.109375 150.09375 125.191406 152.328125 125.351562 154.550781 L 82.175781 156.316406 Z M 131.757812 158.347656 " fill-opacity="1" fill-rule="nonzero"/></g><g transform="matrix(1, 0, 0, 1, 135, 150)"><g clip-path="url(#407d56cccd)"><g fill="#3c8991" fill-opacity="1"><g transform="translate(0.619579, 10.666457)"><g><path d="M 1.078125 0 L 1.078125 -9.59375 L 4.859375 -9.59375 C 5.429688 -9.59375 5.921875 -9.46875 6.328125 -9.21875 C 6.742188 -8.96875 7.0625 -8.625 7.28125 -8.1875 C 7.5 -7.75 7.601562 -7.25 7.59375 -6.6875 C 7.582031 -6.332031 7.503906 -5.976562 7.359375 -5.625 C 7.222656 -5.28125 7.003906 -5.003906 6.703125 -4.796875 C 7.015625 -4.585938 7.253906 -4.3125 7.421875 -3.96875 C 7.597656 -3.625 7.6875 -3.257812 7.6875 -2.875 C 7.6875 -2.34375 7.5625 -1.859375 7.3125 -1.421875 C 7.0625 -0.992188 6.71875 -0.648438 6.28125 -0.390625 C 5.851562 -0.128906 5.378906 0 4.859375 0 Z M 3 -7.6875 L 3 -5.75 L 4.703125 -5.75 C 4.984375 -5.75 5.203125 -5.84375 5.359375 -6.03125 C 5.515625 -6.226562 5.59375 -6.457031 5.59375 -6.71875 C 5.59375 -6.988281 5.515625 -7.21875 5.359375 -7.40625 C 5.203125 -7.59375 4.984375 -7.6875 4.703125 -7.6875 Z M 3 -3.828125 L 3 -1.921875 L 4.703125 -1.921875 C 4.984375 -1.921875 5.210938 -2.015625 5.390625 -2.203125 C 5.578125 -2.390625 5.671875 -2.613281 5.671875 -2.875 C 5.671875 -3.144531 5.578125 -3.367188 5.390625 -3.546875 C 5.210938 -3.734375 4.984375 -3.828125 4.703125 -3.828125 Z M 3 -3.828125 "/></g></g></g><g fill="#3c8991" fill-opacity="1"><g transform="translate(8.94485, 10.666457)"><g><path d="M 6.03125 0 L 1.078125 0 L 1.078125 -9.578125 L 5.875 -9.578125 L 5.875 -7.671875 L 2.984375 -7.671875 L 2.984375 -5.75 L 5.515625 -5.75 L 5.515625 -3.828125 L 2.984375 -3.828125 L 2.984375 -1.921875 L 6.03125 -1.921875 Z M 6.03125 0 "/></g></g></g><g fill="#3c8991" fill-opacity="1"><g transform="translate(15.701597, 10.666457)"><g><path d="M 5.84375 0 L 3.921875 -3.65625 L 2.984375 -3.65625 L 2.984375 0 L 1.078125 0 L 1.078125 -9.578125 L 4.859375 -9.578125 C 5.429688 -9.578125 5.914062 -9.457031 6.3125 -9.21875 C 6.707031 -8.988281 7.015625 -8.679688 7.234375 -8.296875 C 7.460938 -7.921875 7.601562 -7.507812 7.65625 -7.0625 C 7.707031 -6.625 7.671875 -6.191406 7.546875 -5.765625 C 7.429688 -5.347656 7.226562 -4.972656 6.9375 -4.640625 C 6.644531 -4.316406 6.265625 -4.085938 5.796875 -3.953125 L 8.015625 0 Z M 2.984375 -5.515625 L 4.671875 -5.515625 C 4.929688 -5.515625 5.140625 -5.585938 5.296875 -5.734375 C 5.453125 -5.878906 5.554688 -6.054688 5.609375 -6.265625 C 5.671875 -6.484375 5.671875 -6.695312 5.609375 -6.90625 C 5.554688 -7.125 5.453125 -7.304688 5.296875 -7.453125 C 5.140625 -7.597656 4.929688 -7.671875 4.671875 -7.671875 L 2.984375 -7.671875 Z M 2.984375 -5.515625 "/></g></g></g><g fill="#3c8991" fill-opacity="1"><g transform="translate(23.919611, 10.666457)"><g><path d="M 7.984375 -0.59375 C 7.617188 -0.382812 7.226562 -0.222656 6.8125 -0.109375 C 6.394531 -0.00390625 5.960938 0.046875 5.515625 0.046875 C 4.722656 0.046875 4.023438 -0.0820312 3.421875 -0.34375 C 2.816406 -0.613281 2.304688 -0.972656 1.890625 -1.421875 C 1.484375 -1.878906 1.175781 -2.390625 0.96875 -2.953125 C 0.757812 -3.523438 0.648438 -4.113281 0.640625 -4.71875 C 0.628906 -5.320312 0.71875 -5.910156 0.90625 -6.484375 C 1.101562 -7.054688 1.398438 -7.578125 1.796875 -8.046875 C 2.203125 -8.515625 2.710938 -8.894531 3.328125 -9.1875 C 3.953125 -9.476562 4.679688 -9.640625 5.515625 -9.671875 C 5.898438 -9.679688 6.25 -9.660156 6.5625 -9.609375 C 6.875 -9.554688 7.132812 -9.5 7.34375 -9.4375 C 7.5625 -9.375 7.695312 -9.332031 7.75 -9.3125 L 7.515625 -7.375 C 7.328125 -7.457031 7.070312 -7.539062 6.75 -7.625 C 6.4375 -7.707031 6.023438 -7.738281 5.515625 -7.71875 C 4.953125 -7.695312 4.476562 -7.578125 4.09375 -7.359375 C 3.707031 -7.140625 3.398438 -6.851562 3.171875 -6.5 C 2.941406 -6.15625 2.789062 -5.773438 2.71875 -5.359375 C 2.644531 -4.953125 2.648438 -4.539062 2.734375 -4.125 C 2.816406 -3.71875 2.972656 -3.34375 3.203125 -3 C 3.441406 -2.65625 3.753906 -2.378906 4.140625 -2.171875 C 4.523438 -1.960938 4.984375 -1.859375 5.515625 -1.859375 C 5.597656 -1.859375 5.679688 -1.863281 5.765625 -1.875 C 5.859375 -1.894531 5.953125 -1.910156 6.046875 -1.921875 L 6.046875 -4.796875 L 7.984375 -4.796875 Z M 7.984375 -0.59375 "/></g></g></g><g fill="#3c8991" fill-opacity="1"><g transform="translate(32.942009, 10.666457)"><g><path d="M 0.625 -0.609375 L 0.875 -2.625 C 1.238281 -2.363281 1.597656 -2.175781 1.953125 -2.0625 C 2.316406 -1.957031 2.644531 -1.894531 2.9375 -1.875 C 3.238281 -1.851562 3.460938 -1.847656 3.609375 -1.859375 C 3.890625 -1.878906 4.128906 -1.976562 4.328125 -2.15625 C 4.535156 -2.34375 4.625 -2.566406 4.59375 -2.828125 C 4.582031 -3.109375 4.484375 -3.316406 4.296875 -3.453125 C 4.109375 -3.597656 3.878906 -3.71875 3.609375 -3.8125 C 3.109375 -4 2.640625 -4.210938 2.203125 -4.453125 C 1.773438 -4.703125 1.425781 -5.007812 1.15625 -5.375 C 0.894531 -5.738281 0.765625 -6.191406 0.765625 -6.734375 C 0.765625 -7.265625 0.878906 -7.742188 1.109375 -8.171875 C 1.335938 -8.609375 1.65625 -8.957031 2.0625 -9.21875 C 2.476562 -9.476562 2.945312 -9.625 3.46875 -9.65625 C 3.71875 -9.664062 4.023438 -9.65625 4.390625 -9.625 C 4.753906 -9.59375 5.242188 -9.46875 5.859375 -9.25 L 5.625 -7.40625 C 5.09375 -7.613281 4.671875 -7.734375 4.359375 -7.765625 C 4.046875 -7.796875 3.8125 -7.804688 3.65625 -7.796875 C 3.320312 -7.785156 3.078125 -7.671875 2.921875 -7.453125 C 2.765625 -7.234375 2.691406 -6.992188 2.703125 -6.734375 C 2.734375 -6.460938 2.847656 -6.253906 3.046875 -6.109375 C 3.253906 -5.972656 3.5 -5.859375 3.78125 -5.765625 C 4.28125 -5.585938 4.738281 -5.363281 5.15625 -5.09375 C 5.582031 -4.832031 5.921875 -4.515625 6.171875 -4.140625 C 6.429688 -3.773438 6.5625 -3.335938 6.5625 -2.828125 C 6.5625 -2.296875 6.441406 -1.816406 6.203125 -1.390625 C 5.972656 -0.960938 5.640625 -0.617188 5.203125 -0.359375 C 4.773438 -0.0976562 4.257812 0.046875 3.65625 0.078125 C 3.476562 0.0859375 3.234375 0.0820312 2.921875 0.0625 C 2.617188 0.0390625 2.269531 -0.0195312 1.875 -0.125 C 1.476562 -0.226562 1.0625 -0.390625 0.625 -0.609375 Z M 0.625 -0.609375 "/></g></g></g><g fill="#3c8991" fill-opacity="1"><g transform="translate(40.033909, 10.666457)"><g><path d="M 7.171875 -7.359375 C 6.992188 -7.453125 6.773438 -7.546875 6.515625 -7.640625 C 6.265625 -7.734375 5.929688 -7.78125 5.515625 -7.78125 C 4.960938 -7.78125 4.492188 -7.671875 4.109375 -7.453125 C 3.734375 -7.242188 3.425781 -6.960938 3.1875 -6.609375 C 2.957031 -6.265625 2.800781 -5.882812 2.71875 -5.46875 C 2.632812 -5.0625 2.632812 -4.648438 2.71875 -4.234375 C 2.800781 -3.816406 2.957031 -3.429688 3.1875 -3.078125 C 3.425781 -2.734375 3.734375 -2.457031 4.109375 -2.25 C 4.492188 -2.039062 4.960938 -1.9375 5.515625 -1.9375 C 5.929688 -1.9375 6.296875 -1.984375 6.609375 -2.078125 C 6.929688 -2.171875 7.179688 -2.265625 7.359375 -2.359375 L 7.609375 -0.375 C 7.316406 -0.257812 6.976562 -0.160156 6.59375 -0.078125 C 6.207031 -0.00390625 5.847656 0.03125 5.515625 0.03125 C 4.703125 0.03125 3.988281 -0.101562 3.375 -0.375 C 2.769531 -0.65625 2.265625 -1.023438 1.859375 -1.484375 C 1.453125 -1.953125 1.144531 -2.472656 0.9375 -3.046875 C 0.738281 -3.628906 0.640625 -4.226562 0.640625 -4.84375 C 0.640625 -5.457031 0.738281 -6.050781 0.9375 -6.625 C 1.144531 -7.207031 1.453125 -7.726562 1.859375 -8.1875 C 2.265625 -8.65625 2.769531 -9.023438 3.375 -9.296875 C 3.988281 -9.566406 4.703125 -9.703125 5.515625 -9.703125 C 6.210938 -9.703125 6.84375 -9.578125 7.40625 -9.328125 Z M 7.171875 -7.359375 "/></g></g></g><g fill="#3c8991" fill-opacity="1"><g transform="translate(48.104462, 10.666457)"><g><path d="M 7.78125 0 L 5.859375 0 L 5.859375 -3.828125 L 2.984375 -3.828125 L 2.984375 0 L 1.078125 0 L 1.078125 -9.578125 L 2.984375 -9.578125 L 2.984375 -5.75 L 5.859375 -5.75 L 5.859375 -9.578125 L 7.78125 -9.578125 Z M 7.78125 0 "/></g></g></g><g fill="#3c8991" fill-opacity="1"><g transform="translate(56.965975, 10.666457)"><g><path d="M 6.03125 0 L 1.078125 0 L 1.078125 -9.578125 L 5.875 -9.578125 L 5.875 -7.671875 L 2.984375 -7.671875 L 2.984375 -5.75 L 5.515625 -5.75 L 5.515625 -3.828125 L 2.984375 -3.828125 L 2.984375 -1.921875 L 6.03125 -1.921875 Z M 6.03125 0 "/></g></g></g><g fill="#3c8991" fill-opacity="1"><g transform="translate(63.722722, 10.666457)"><g><path d="M 2.984375 -5.21875 L 2.984375 0 L 1.078125 0 L 1.078125 -9.78125 L 1.578125 -9.78125 L 6.421875 -4.15625 L 6.421875 -9.578125 L 8.359375 -9.578125 L 8.359375 0.203125 L 7.84375 0.203125 Z M 2.984375 -5.21875 "/></g></g></g><g fill="#3c8991" fill-opacity="1"><g transform="translate(73.160709, 10.666457)"><g><path d="M 7.78125 0 L 5.859375 0 L 5.859375 -3.828125 L 2.984375 -3.828125 L 2.984375 0 L 1.078125 0 L 1.078125 -9.578125 L 2.984375 -9.578125 L 2.984375 -5.75 L 5.859375 -5.75 L 5.859375 -9.578125 L 7.78125 -9.578125 Z M 7.78125 0 "/></g></g></g><g fill="#3c8991" fill-opacity="1"><g transform="translate(82.022222, 10.666457)"><g><path d="M 5.6875 0.140625 C 4.863281 0.140625 4.140625 0 3.515625 -0.28125 C 2.898438 -0.5625 2.382812 -0.9375 1.96875 -1.40625 C 1.5625 -1.875 1.253906 -2.398438 1.046875 -2.984375 C 0.835938 -3.578125 0.734375 -4.179688 0.734375 -4.796875 C 0.734375 -5.421875 0.835938 -6.023438 1.046875 -6.609375 C 1.253906 -7.203125 1.5625 -7.734375 1.96875 -8.203125 C 2.382812 -8.679688 2.898438 -9.054688 3.515625 -9.328125 C 4.140625 -9.609375 4.863281 -9.75 5.6875 -9.75 C 6.507812 -9.75 7.226562 -9.609375 7.84375 -9.328125 C 8.46875 -9.054688 8.984375 -8.679688 9.390625 -8.203125 C 9.804688 -7.734375 10.113281 -7.203125 10.3125 -6.609375 C 10.519531 -6.023438 10.625 -5.421875 10.625 -4.796875 C 10.625 -4.179688 10.519531 -3.578125 10.3125 -2.984375 C 10.113281 -2.398438 9.804688 -1.875 9.390625 -1.40625 C 8.984375 -0.9375 8.46875 -0.5625 7.84375 -0.28125 C 7.226562 0 6.507812 0.140625 5.6875 0.140625 Z M 5.6875 -1.84375 C 6.226562 -1.84375 6.695312 -1.953125 7.09375 -2.171875 C 7.488281 -2.390625 7.800781 -2.671875 8.03125 -3.015625 C 8.257812 -3.367188 8.414062 -3.753906 8.5 -4.171875 C 8.582031 -4.597656 8.582031 -5.019531 8.5 -5.4375 C 8.414062 -5.863281 8.257812 -6.25 8.03125 -6.59375 C 7.800781 -6.945312 7.488281 -7.234375 7.09375 -7.453125 C 6.695312 -7.671875 6.226562 -7.78125 5.6875 -7.78125 C 5.132812 -7.78125 4.660156 -7.671875 4.265625 -7.453125 C 3.878906 -7.234375 3.566406 -6.945312 3.328125 -6.59375 C 3.097656 -6.25 2.941406 -5.863281 2.859375 -5.4375 C 2.785156 -5.019531 2.785156 -4.597656 2.859375 -4.171875 C 2.941406 -3.753906 3.097656 -3.367188 3.328125 -3.015625 C 3.566406 -2.671875 3.878906 -2.390625 4.265625 -2.171875 C 4.660156 -1.953125 5.132812 -1.84375 5.6875 -1.84375 Z M 5.6875 -1.84375 "/></g></g></g><g fill="#3c8991" fill-opacity="1"><g transform="translate(93.377296, 10.666457)"><g><path d="M 6.03125 0 L 1.078125 0 L 1.078125 -9.578125 L 5.875 -9.578125 L 5.875 -7.671875 L 2.984375 -7.671875 L 2.984375 -5.75 L 5.515625 -5.75 L 5.515625 -3.828125 L 2.984375 -3.828125 L 2.984375 -1.921875 L 6.03125 -1.921875 Z M 6.03125 0 "/></g></g></g><g fill="#3c8991" fill-opacity="1"><g transform="translate(100.134043, 10.666457)"><g><path d="M 1.078125 0 L 1.078125 -9.578125 L 2.984375 -9.578125 L 2.984375 -5.765625 L 5.40625 -9.578125 L 7.640625 -9.578125 L 4.53125 -4.859375 L 7.90625 0 L 5.53125 0 L 2.984375 -3.75 L 2.984375 0 Z M 1.078125 0 "/></g></g></g></g></g><g fill="#3c8991" fill-opacity="1"><g transform="translate(155.216179, 180.189113)"><g><path d="M 0.75 0 L 0.75 -8.40625 L 3.984375 -8.40625 C 4.609375 -8.40625 5.191406 -8.296875 5.734375 -8.078125 C 6.273438 -7.859375 6.742188 -7.5625 7.140625 -7.1875 C 7.535156 -6.8125 7.847656 -6.363281 8.078125 -5.84375 C 8.304688 -5.320312 8.421875 -4.765625 8.421875 -4.171875 C 8.421875 -3.585938 8.304688 -3.039062 8.078125 -2.53125 C 7.847656 -2.019531 7.535156 -1.578125 7.140625 -1.203125 C 6.742188 -0.828125 6.273438 -0.53125 5.734375 -0.3125 C 5.191406 -0.101562 4.609375 0 3.984375 0 Z M 3.96875 -6.859375 L 2.5 -6.859375 L 2.5 -1.546875 L 3.96875 -1.546875 C 4.34375 -1.546875 4.691406 -1.613281 5.015625 -1.75 C 5.335938 -1.882812 5.617188 -2.066406 5.859375 -2.296875 C 6.097656 -2.535156 6.285156 -2.816406 6.421875 -3.140625 C 6.554688 -3.460938 6.625 -3.804688 6.625 -4.171875 C 6.625 -4.546875 6.554688 -4.894531 6.421875 -5.21875 C 6.285156 -5.550781 6.097656 -5.835938 5.859375 -6.078125 C 5.617188 -6.316406 5.335938 -6.503906 5.015625 -6.640625 C 4.691406 -6.785156 4.34375 -6.859375 3.96875 -6.859375 Z M 3.96875 -6.859375 "/></g></g></g><g fill="#3c8991" fill-opacity="1"><g transform="translate(164.972198, 180.189113)"><g><path d="M 6.25 -0.78125 C 5.863281 -0.46875 5.46875 -0.238281 5.0625 -0.09375 C 4.664062 0.0507812 4.21875 0.125 3.71875 0.125 C 3.25 0.125 2.804688 0.0390625 2.390625 -0.125 C 1.984375 -0.300781 1.628906 -0.53125 1.328125 -0.8125 C 1.023438 -1.101562 0.785156 -1.445312 0.609375 -1.84375 C 0.441406 -2.238281 0.359375 -2.664062 0.359375 -3.125 C 0.359375 -3.570312 0.441406 -3.992188 0.609375 -4.390625 C 0.773438 -4.785156 1 -5.128906 1.28125 -5.421875 C 1.570312 -5.710938 1.914062 -5.941406 2.3125 -6.109375 C 2.707031 -6.273438 3.128906 -6.359375 3.578125 -6.359375 C 4.015625 -6.359375 4.421875 -6.269531 4.796875 -6.09375 C 5.179688 -5.925781 5.507812 -5.691406 5.78125 -5.390625 C 6.0625 -5.097656 6.28125 -4.742188 6.4375 -4.328125 C 6.59375 -3.921875 6.671875 -3.476562 6.671875 -3 L 6.671875 -2.5625 L 2.015625 -2.5625 C 2.128906 -2.175781 2.34375 -1.863281 2.65625 -1.625 C 2.976562 -1.382812 3.359375 -1.265625 3.796875 -1.265625 C 4.066406 -1.265625 4.320312 -1.304688 4.5625 -1.390625 C 4.800781 -1.484375 5.003906 -1.609375 5.171875 -1.765625 Z M 3.546875 -5 C 3.160156 -5 2.832031 -4.882812 2.5625 -4.65625 C 2.289062 -4.425781 2.101562 -4.125 2 -3.75 L 5.0625 -3.75 C 4.957031 -4.113281 4.765625 -4.410156 4.484375 -4.640625 C 4.210938 -4.878906 3.898438 -5 3.546875 -5 Z M 3.546875 -5 "/></g></g></g><g fill="#3c8991" fill-opacity="1"><g transform="translate(172.904212, 180.189113)"><g><path d="M 0.640625 0 L 0.640625 -6.25 L 2.296875 -6.25 L 2.296875 -5.765625 C 2.535156 -5.960938 2.800781 -6.113281 3.09375 -6.21875 C 3.382812 -6.320312 3.703125 -6.375 4.046875 -6.375 C 4.765625 -6.375 5.351562 -6.140625 5.8125 -5.671875 C 6.28125 -5.210938 6.515625 -4.617188 6.515625 -3.890625 L 6.515625 0 L 4.875 0 L 4.875 -3.640625 C 4.875 -4.035156 4.753906 -4.351562 4.515625 -4.59375 C 4.273438 -4.832031 3.960938 -4.953125 3.578125 -4.953125 C 3.304688 -4.953125 3.0625 -4.894531 2.84375 -4.78125 C 2.625 -4.675781 2.441406 -4.523438 2.296875 -4.328125 L 2.296875 0 Z M 0.640625 0 "/></g></g></g><g fill="#3c8991" fill-opacity="1"><g transform="translate(180.920226, 180.189113)"><g><path d="M 1.5 -1.765625 L 1.5 -4.875 L 0.21875 -4.875 L 0.21875 -6.25 L 1.5 -6.25 L 1.5 -7.84375 L 3.140625 -8.21875 L 3.140625 -6.25 L 4.921875 -6.25 L 4.921875 -4.875 L 3.140625 -4.875 L 3.140625 -2.09375 C 3.140625 -1.800781 3.203125 -1.59375 3.328125 -1.46875 C 3.460938 -1.351562 3.691406 -1.296875 4.015625 -1.296875 C 4.160156 -1.296875 4.300781 -1.304688 4.4375 -1.328125 C 4.570312 -1.347656 4.722656 -1.382812 4.890625 -1.4375 L 4.890625 -0.09375 C 4.710938 -0.0390625 4.5 0 4.25 0.03125 C 4 0.0703125 3.785156 0.09375 3.609375 0.09375 C 2.910156 0.09375 2.382812 -0.0625 2.03125 -0.375 C 1.675781 -0.695312 1.5 -1.160156 1.5 -1.765625 Z M 1.5 -1.765625 "/></g></g></g><g fill="#3c8991" fill-opacity="1"><g transform="translate(186.908232, 180.189113)"><g><path d="M 2.625 0.109375 C 1.957031 0.109375 1.410156 -0.0664062 0.984375 -0.421875 C 0.554688 -0.773438 0.34375 -1.238281 0.34375 -1.8125 C 0.34375 -2.40625 0.570312 -2.867188 1.03125 -3.203125 C 1.488281 -3.535156 2.117188 -3.703125 2.921875 -3.703125 C 3.171875 -3.703125 3.421875 -3.679688 3.671875 -3.640625 C 3.929688 -3.609375 4.1875 -3.550781 4.4375 -3.46875 L 4.4375 -3.90625 C 4.4375 -4.269531 4.320312 -4.539062 4.09375 -4.71875 C 3.875 -4.90625 3.550781 -5 3.125 -5 C 2.851562 -5 2.5625 -4.957031 2.25 -4.875 C 1.945312 -4.789062 1.601562 -4.660156 1.21875 -4.484375 L 0.609375 -5.703125 C 1.097656 -5.921875 1.570312 -6.085938 2.03125 -6.203125 C 2.488281 -6.316406 2.941406 -6.375 3.390625 -6.375 C 4.234375 -6.375 4.890625 -6.171875 5.359375 -5.765625 C 5.828125 -5.359375 6.0625 -4.789062 6.0625 -4.0625 L 6.0625 0 L 4.4375 0 L 4.4375 -0.4375 C 4.175781 -0.25 3.898438 -0.109375 3.609375 -0.015625 C 3.316406 0.0664062 2.988281 0.109375 2.625 0.109375 Z M 1.921875 -1.84375 C 1.921875 -1.601562 2.023438 -1.410156 2.234375 -1.265625 C 2.441406 -1.128906 2.71875 -1.0625 3.0625 -1.0625 C 3.332031 -1.0625 3.582031 -1.09375 3.8125 -1.15625 C 4.039062 -1.226562 4.25 -1.332031 4.4375 -1.46875 L 4.4375 -2.40625 C 4.238281 -2.476562 4.03125 -2.53125 3.8125 -2.5625 C 3.59375 -2.601562 3.363281 -2.625 3.125 -2.625 C 2.75 -2.625 2.453125 -2.550781 2.234375 -2.40625 C 2.023438 -2.269531 1.921875 -2.082031 1.921875 -1.84375 Z M 1.921875 -1.84375 "/></g></g></g><g fill="#3c8991" fill-opacity="1"><g transform="translate(194.468244, 180.189113)"><g><path d="M 2.296875 -8.765625 L 2.296875 0 L 0.640625 0 L 0.640625 -8.40625 Z M 2.296875 -8.765625 "/></g></g></g><g fill="#3c8991" fill-opacity="1"><g transform="translate(198.296247, 180.189113)"><g/></g></g><g fill="#3c8991" fill-opacity="1"><g transform="translate(201.608247, 180.189113)"><g><path d="M 4.953125 -1.484375 C 5.390625 -1.484375 5.800781 -1.578125 6.1875 -1.765625 C 6.570312 -1.953125 6.914062 -2.21875 7.21875 -2.5625 L 8.359375 -1.421875 C 7.953125 -0.953125 7.4375 -0.578125 6.8125 -0.296875 C 6.195312 -0.015625 5.5625 0.125 4.90625 0.125 C 4.269531 0.125 3.675781 0.015625 3.125 -0.203125 C 2.582031 -0.429688 2.109375 -0.738281 1.703125 -1.125 C 1.304688 -1.507812 0.992188 -1.960938 0.765625 -2.484375 C 0.546875 -3.015625 0.4375 -3.585938 0.4375 -4.203125 C 0.4375 -4.804688 0.550781 -5.375 0.78125 -5.90625 C 1.007812 -6.4375 1.320312 -6.894531 1.71875 -7.28125 C 2.125 -7.664062 2.597656 -7.96875 3.140625 -8.1875 C 3.691406 -8.414062 4.28125 -8.53125 4.90625 -8.53125 C 5.582031 -8.53125 6.234375 -8.390625 6.859375 -8.109375 C 7.492188 -7.828125 8.007812 -7.441406 8.40625 -6.953125 L 7.21875 -5.796875 C 6.925781 -6.160156 6.578125 -6.441406 6.171875 -6.640625 C 5.773438 -6.835938 5.351562 -6.9375 4.90625 -6.9375 C 4.53125 -6.9375 4.175781 -6.863281 3.84375 -6.71875 C 3.507812 -6.582031 3.222656 -6.390625 2.984375 -6.140625 C 2.742188 -5.898438 2.554688 -5.613281 2.421875 -5.28125 C 2.285156 -4.945312 2.21875 -4.585938 2.21875 -4.203125 C 2.21875 -3.816406 2.285156 -3.457031 2.421875 -3.125 C 2.566406 -2.789062 2.757812 -2.503906 3 -2.265625 C 3.25 -2.023438 3.539062 -1.832031 3.875 -1.6875 C 4.207031 -1.550781 4.566406 -1.484375 4.953125 -1.484375 Z M 4.953125 -1.484375 "/></g></g></g><g fill="#3c8991" fill-opacity="1"><g transform="translate(211.12426, 180.189113)"><g><path d="M 2.296875 -8.765625 L 2.296875 0 L 0.640625 0 L 0.640625 -8.40625 Z M 2.296875 -8.765625 "/></g></g></g><g fill="#3c8991" fill-opacity="1"><g transform="translate(214.952263, 180.189113)"><g><path d="M 1.46875 -7 C 1.207031 -7 0.984375 -7.085938 0.796875 -7.265625 C 0.617188 -7.453125 0.53125 -7.675781 0.53125 -7.9375 C 0.53125 -8.1875 0.617188 -8.40625 0.796875 -8.59375 C 0.984375 -8.78125 1.207031 -8.875 1.46875 -8.875 C 1.71875 -8.875 1.9375 -8.78125 2.125 -8.59375 C 2.3125 -8.40625 2.40625 -8.1875 2.40625 -7.9375 C 2.40625 -7.675781 2.3125 -7.453125 2.125 -7.265625 C 1.9375 -7.085938 1.71875 -7 1.46875 -7 Z M 2.296875 -6.25 L 2.296875 0 L 0.640625 0 L 0.640625 -6.25 Z M 2.296875 -6.25 "/></g></g></g><g fill="#3c8991" fill-opacity="1"><g transform="translate(218.780266, 180.189113)"><g><path d="M 0.640625 0 L 0.640625 -6.25 L 2.296875 -6.25 L 2.296875 -5.765625 C 2.535156 -5.960938 2.800781 -6.113281 3.09375 -6.21875 C 3.382812 -6.320312 3.703125 -6.375 4.046875 -6.375 C 4.765625 -6.375 5.351562 -6.140625 5.8125 -5.671875 C 6.28125 -5.210938 6.515625 -4.617188 6.515625 -3.890625 L 6.515625 0 L 4.875 0 L 4.875 -3.640625 C 4.875 -4.035156 4.753906 -4.351562 4.515625 -4.59375 C 4.273438 -4.832031 3.960938 -4.953125 3.578125 -4.953125 C 3.304688 -4.953125 3.0625 -4.894531 2.84375 -4.78125 C 2.625 -4.675781 2.441406 -4.523438 2.296875 -4.328125 L 2.296875 0 Z M 0.640625 0 "/></g></g></g><g fill="#3c8991" fill-opacity="1"><g transform="translate(226.796279, 180.189113)"><g><path d="M 1.46875 -7 C 1.207031 -7 0.984375 -7.085938 0.796875 -7.265625 C 0.617188 -7.453125 0.53125 -7.675781 0.53125 -7.9375 C 0.53125 -8.1875 0.617188 -8.40625 0.796875 -8.59375 C 0.984375 -8.78125 1.207031 -8.875 1.46875 -8.875 C 1.71875 -8.875 1.9375 -8.78125 2.125 -8.59375 C 2.3125 -8.40625 2.40625 -8.1875 2.40625 -7.9375 C 2.40625 -7.675781 2.3125 -7.453125 2.125 -7.265625 C 1.9375 -7.085938 1.71875 -7 1.46875 -7 Z M 2.296875 -6.25 L 2.296875 0 L 0.640625 0 L 0.640625 -6.25 Z M 2.296875 -6.25 "/></g></g></g><g fill="#3c8991" fill-opacity="1"><g transform="translate(230.624282, 180.189113)"><g><path d="M 3.703125 -1.3125 C 3.984375 -1.3125 4.242188 -1.367188 4.484375 -1.484375 C 4.734375 -1.597656 4.972656 -1.773438 5.203125 -2.015625 L 6.1875 -1 C 5.863281 -0.644531 5.476562 -0.367188 5.03125 -0.171875 C 4.582031 0.0234375 4.117188 0.125 3.640625 0.125 C 3.179688 0.125 2.75 0.0390625 2.34375 -0.125 C 1.9375 -0.300781 1.585938 -0.53125 1.296875 -0.8125 C 1.003906 -1.101562 0.773438 -1.445312 0.609375 -1.84375 C 0.441406 -2.238281 0.359375 -2.664062 0.359375 -3.125 C 0.359375 -3.570312 0.441406 -3.992188 0.609375 -4.390625 C 0.773438 -4.785156 1.003906 -5.128906 1.296875 -5.421875 C 1.585938 -5.722656 1.9375 -5.957031 2.34375 -6.125 C 2.75 -6.289062 3.179688 -6.375 3.640625 -6.375 C 4.128906 -6.375 4.601562 -6.273438 5.0625 -6.078125 C 5.519531 -5.878906 5.910156 -5.601562 6.234375 -5.25 L 5.21875 -4.1875 C 5 -4.4375 4.757812 -4.625 4.5 -4.75 C 4.238281 -4.875 3.960938 -4.9375 3.671875 -4.9375 C 3.203125 -4.9375 2.800781 -4.757812 2.46875 -4.40625 C 2.144531 -4.0625 1.984375 -3.632812 1.984375 -3.125 C 1.984375 -2.613281 2.148438 -2.179688 2.484375 -1.828125 C 2.816406 -1.484375 3.222656 -1.3125 3.703125 -1.3125 Z M 3.703125 -1.3125 "/></g></g></g></svg>