<svg xmlns="http://www.w3.org/2000/svg" xmlns:xlink="http://www.w3.org/1999/xlink" width="500" zoomAndPan="magnify" viewBox="0 0 375 374.999991" height="500" preserveAspectRatio="xMidYMid meet" version="1.0"><defs><g/><clipPath id="ef99e71fd2"><path d="M 63.773438 187 L 337.523438 187 L 337.523438 264.597656 L 63.773438 264.597656 Z M 63.773438 187 " clip-rule="nonzero"/></clipPath><clipPath id="8226795f7e"><path d="M 63.773438 95.097656 L 337.523438 95.097656 L 337.523438 149 L 63.773438 149 Z M 63.773438 95.097656 " clip-rule="nonzero"/></clipPath><clipPath id="95b7d31a10"><rect x="0" width="114" y="0" height="16"/></clipPath></defs><g clip-path="url(#ef99e71fd2)"><path fill="#0097b2" d="M 205.140625 193.335938 C 204.34375 193.375 203.574219 193.546875 202.839844 193.816406 C 202.117188 194.117188 201.425781 194.492188 200.804688 194.972656 C 198.273438 196.929688 196.625 199.941406 195.300781 202.972656 C 192.691406 209.128906 191.226562 215.804688 189.859375 222.457031 C 188.515625 229.132812 187.398438 235.878906 186.023438 242.644531 C 185.320312 246.027344 184.570312 249.410156 183.527344 252.8125 C 183.003906 254.511719 182.410156 256.207031 181.617188 257.914062 C 180.792969 259.597656 179.871094 261.367188 178.054688 262.933594 C 177.160156 263.6875 175.90625 264.378906 174.53125 264.546875 C 173.128906 264.789062 171.902344 264.488281 170.785156 264.167969 C 168.648438 263.40625 167.03125 262.242188 165.566406 261.035156 C 162.695312 258.585938 160.359375 255.859375 158.199219 253.046875 C 153.902344 247.417969 150.289062 241.441406 146.914062 235.359375 C 140.289062 223.132812 134.746094 210.402344 130.03125 197.363281 C 129.445312 195.71875 128.875 194.070312 128.308594 192.421875 L 63.773438 190.070312 L 132.714844 187.558594 L 135.222656 187.46875 L 135.222656 188.445312 L 135.683594 188.445312 C 136.296875 190.554688 136.949219 192.664062 137.628906 194.761719 C 141.796875 207.589844 146.804688 220.210938 152.828125 232.257812 C 155.847656 238.261719 159.113281 244.164062 162.90625 249.574219 C 164.792969 252.273438 166.863281 254.84375 169.121094 256.921875 C 170.234375 257.945312 171.460938 258.808594 172.53125 259.242188 C 173.046875 259.390625 173.527344 259.554688 173.839844 259.472656 C 174.160156 259.472656 174.492188 259.335938 174.910156 259.023438 C 175.753906 258.410156 176.628906 257.144531 177.332031 255.800781 C 178.054688 254.433594 178.667969 252.917969 179.21875 251.382812 C 180.332031 248.28125 181.222656 245.019531 182.066406 241.734375 C 183.734375 235.160156 185.160156 228.453125 186.835938 221.777344 C 188.542969 215.125 190.328125 208.40625 193.371094 202.085938 C 194.9375 198.972656 196.84375 195.828125 199.886719 193.703125 C 200.648438 193.179688 201.492188 192.78125 202.367188 192.480469 C 203.257812 192.207031 204.183594 192.058594 205.105469 192.058594 C 206.960938 192.058594 208.730469 192.660156 210.265625 193.523438 L 209.804688 194.414062 C 208.332031 193.679688 206.714844 193.257812 205.140625 193.335938 Z M 268.558594 187.558594 L 266.050781 187.46875 L 266.050781 188.445312 L 265.953125 188.445312 C 264.074219 194.539062 261.917969 200.5625 259.539062 206.503906 C 255.496094 216.625 250.796875 226.523438 245.265625 235.898438 C 242.484375 240.574219 239.523438 245.144531 236.191406 249.371094 C 234.523438 251.476562 232.765625 253.507812 230.871094 255.324219 C 229.074219 257.019531 227.125 258.605469 225.089844 259.539062 C 223.644531 259.328125 222.199219 258.484375 220.902344 257.289062 C 219.46875 255.976562 218.230469 254.296875 217.109375 252.550781 C 214.902344 249 213.152344 245.0625 211.617188 241.046875 C 208.566406 232.996094 206.21875 224.621094 204.152344 216.191406 L 203.167969 216.402344 C 203.960938 220.6875 204.835938 224.957031 205.828125 229.214844 C 206.824219 233.457031 207.949219 237.695312 209.3125 241.871094 C 210.699219 246.035156 212.277344 250.171875 214.472656 254.128906 C 215.597656 256.085938 216.863281 258.011719 218.550781 259.726562 C 219.402344 260.582031 220.355469 261.382812 221.46875 262.027344 C 222.585938 262.671875 223.878906 263.140625 225.253906 263.292969 L 225.648438 263.332031 L 226.078125 263.171875 C 229.070312 262.046875 231.4375 260.238281 233.640625 258.363281 C 235.828125 256.453125 237.796875 254.386719 239.660156 252.246094 C 243.386719 247.949219 246.6875 243.382812 249.742188 238.664062 C 255.832031 229.238281 261.054688 219.300781 265.640625 209.074219 C 268.050781 203.621094 270.265625 198.078125 272.261719 192.441406 L 337.507812 190.066406 Z M 268.558594 187.558594 " fill-opacity="1" fill-rule="nonzero"/></g><g clip-path="url(#8226795f7e)"><path fill="#0097b2" d="M 195.410156 121.472656 C 197.789062 120.476562 200.058594 119.183594 202.246094 117.726562 C 204.445312 116.25 206.542969 114.59375 208.691406 112.917969 C 212.957031 109.554688 217.171875 105.851562 222.082031 102.648438 C 224.519531 101.039062 227.121094 99.535156 229.929688 98.269531 C 232.742188 97.023438 235.800781 96.101562 238.976562 95.597656 C 242.15625 95.105469 245.449219 95.117188 248.632812 95.570312 C 251.835938 96 254.875 96.964844 257.765625 98.121094 C 259.199219 98.710938 260.589844 99.375 261.953125 100.078125 C 262.625 100.425781 263.289062 100.8125 263.949219 101.179688 L 265.9375 102.414062 C 267.402344 103.417969 268.609375 104.402344 269.820312 105.515625 C 271.015625 106.621094 272.140625 107.816406 273.15625 109.082031 C 275.183594 111.609375 276.820312 114.390625 278.105469 117.25 C 279.378906 120.121094 280.300781 123.074219 280.984375 126.035156 C 282.296875 131.957031 282.640625 137.882812 282.488281 143.683594 C 282.484375 143.800781 282.476562 143.914062 282.46875 144.03125 L 337.492188 146.28125 L 276.148438 148.792969 L 273.640625 148.894531 L 273.640625 148.292969 L 273.371094 148.292969 C 273.414062 146.746094 273.421875 145.199219 273.382812 143.664062 C 273.25 138.421875 272.640625 133.242188 271.316406 128.425781 C 270.664062 126.023438 269.828125 123.707031 268.773438 121.566406 C 267.742188 119.40625 266.515625 117.414062 265.050781 115.65625 C 264.308594 114.78125 263.542969 113.945312 262.710938 113.175781 C 261.90625 112.410156 260.953125 111.648438 260.148438 111.078125 L 258.613281 110.125 L 257.007812 109.191406 C 255.925781 108.601562 254.839844 108.027344 253.734375 107.535156 C 249.316406 105.566406 244.757812 104.554688 240.152344 104.984375 C 235.546875 105.375 230.867188 107.152344 226.289062 109.644531 C 221.71875 112.164062 217.160156 115.226562 212.386719 118.207031 C 210.007812 119.710938 207.507812 121.117188 204.90625 122.390625 C 202.289062 123.644531 199.546875 124.769531 196.644531 125.433594 C 193.761719 126.113281 190.746094 126.359375 187.820312 126.015625 C 184.898438 125.671875 182.109375 124.761719 179.597656 123.476562 L 179.949219 122.542969 C 182.609375 123.183594 185.289062 123.476562 187.898438 123.292969 C 190.515625 123.074219 193.03125 122.484375 195.410156 121.472656 Z M 125.117188 148.796875 L 127.625 148.898438 L 127.625 148.292969 L 127.832031 148.292969 C 127.761719 147.429688 127.703125 146.566406 127.640625 145.714844 C 127.632812 145.613281 127.632812 145.511719 127.621094 145.414062 L 127.621094 143.671875 L 127.515625 143.679688 C 127.375 141.097656 127.328125 138.519531 127.371094 135.96875 C 127.402344 132.753906 127.640625 129.574219 128.105469 126.511719 C 128.554688 123.441406 129.289062 120.476562 130.394531 117.816406 C 131.457031 115.136719 132.890625 112.738281 134.769531 110.898438 C 136.578125 109.023438 138.964844 107.726562 141.664062 106.8125 C 142.359375 106.621094 143.03125 106.371094 143.742188 106.210938 L 145.941406 105.789062 C 146.675781 105.660156 147.445312 105.640625 148.210938 105.558594 C 148.972656 105.480469 149.734375 105.398438 150.527344 105.441406 L 152.886719 105.441406 C 153.671875 105.410156 154.472656 105.558594 155.277344 105.589844 L 157.679688 105.761719 C 158.480469 105.859375 159.292969 105.988281 160.097656 106.101562 L 162.527344 106.464844 C 163.339844 106.59375 164.144531 106.792969 164.949219 106.964844 L 167.375 107.488281 L 168.601562 107.746094 L 169.804688 108.066406 L 174.664062 109.363281 L 179.472656 110.910156 L 181.898438 111.660156 L 184.289062 112.523438 C 185.886719 113.105469 187.480469 113.699219 189.089844 114.25 C 190.703125 114.824219 192.261719 115.503906 193.855469 116.117188 L 198.664062 117.964844 L 199.136719 117.082031 C 196.246094 115.203125 193.34375 113.335938 190.363281 111.570312 C 188.867188 110.71875 187.339844 109.894531 185.824219 109.050781 L 183.546875 107.804688 L 181.199219 106.648438 C 174.984375 103.527344 168.417969 100.957031 161.484375 99.171875 C 160.609375 98.960938 159.746094 98.71875 158.863281 98.519531 L 156.183594 98.039062 C 155.28125 97.898438 154.394531 97.695312 153.472656 97.636719 L 150.703125 97.40625 C 149.789062 97.296875 148.847656 97.304688 147.890625 97.328125 C 146.949219 97.347656 146.003906 97.308594 145.050781 97.398438 L 142.160156 97.710938 C 141.195312 97.839844 140.222656 98.089844 139.246094 98.292969 C 135.394531 99.238281 131.46875 101.0625 128.296875 103.914062 C 125.105469 106.714844 122.835938 110.242188 121.179688 113.824219 C 117.957031 121.082031 117.054688 128.582031 116.921875 135.796875 C 116.890625 138.589844 116.992188 141.355469 117.195312 144.101562 L 63.773438 146.285156 Z M 125.117188 148.796875 " fill-opacity="1" fill-rule="nonzero"/></g><g transform="matrix(1, 0, 0, 1, 144, 145)"><g clip-path="url(#95b7d31a10)"><g fill="#0097b2" fill-opacity="1"><g transform="translate(1.229071, 11.409879)"><g><path d="M 1.109375 0 L 1.109375 -9.890625 L 5.015625 -9.890625 C 5.597656 -9.890625 6.101562 -9.757812 6.53125 -9.5 C 6.957031 -9.238281 7.28125 -8.882812 7.5 -8.4375 C 7.726562 -7.988281 7.832031 -7.472656 7.8125 -6.890625 C 7.800781 -6.523438 7.722656 -6.160156 7.578125 -5.796875 C 7.441406 -5.441406 7.21875 -5.15625 6.90625 -4.9375 C 7.226562 -4.71875 7.476562 -4.429688 7.65625 -4.078125 C 7.832031 -3.722656 7.921875 -3.351562 7.921875 -2.96875 C 7.921875 -2.414062 7.789062 -1.914062 7.53125 -1.46875 C 7.269531 -1.019531 6.914062 -0.660156 6.46875 -0.390625 C 6.03125 -0.128906 5.546875 0 5.015625 0 Z M 3.09375 -7.921875 L 3.09375 -5.921875 L 4.84375 -5.921875 C 5.132812 -5.921875 5.359375 -6.019531 5.515625 -6.21875 C 5.679688 -6.414062 5.765625 -6.648438 5.765625 -6.921875 C 5.765625 -7.191406 5.679688 -7.425781 5.515625 -7.625 C 5.359375 -7.820312 5.132812 -7.921875 4.84375 -7.921875 Z M 3.09375 -3.953125 L 3.09375 -1.96875 L 4.84375 -1.96875 C 5.132812 -1.96875 5.375 -2.066406 5.5625 -2.265625 C 5.75 -2.460938 5.84375 -2.695312 5.84375 -2.96875 C 5.84375 -3.25 5.75 -3.484375 5.5625 -3.671875 C 5.375 -3.859375 5.132812 -3.953125 4.84375 -3.953125 Z M 3.09375 -3.953125 "/></g></g></g><g fill="#0097b2" fill-opacity="1"><g transform="translate(9.800954, 11.409879)"><g><path d="M 6.21875 0 L 1.109375 0 L 1.109375 -9.875 L 6.046875 -9.875 L 6.046875 -7.90625 L 3.078125 -7.90625 L 3.078125 -5.921875 L 5.671875 -5.921875 L 5.671875 -3.953125 L 3.078125 -3.953125 L 3.078125 -1.96875 L 6.21875 -1.96875 Z M 6.21875 0 "/></g></g></g><g fill="#0097b2" fill-opacity="1"><g transform="translate(16.75785, 11.409879)"><g><path d="M 6.015625 0 L 4.03125 -3.765625 L 3.078125 -3.765625 L 3.078125 0 L 1.109375 0 L 1.109375 -9.875 L 5 -9.875 C 5.59375 -9.875 6.09375 -9.75 6.5 -9.5 C 6.90625 -9.257812 7.222656 -8.941406 7.453125 -8.546875 C 7.679688 -8.160156 7.820312 -7.738281 7.875 -7.28125 C 7.9375 -6.832031 7.90625 -6.390625 7.78125 -5.953125 C 7.65625 -5.515625 7.441406 -5.125 7.140625 -4.78125 C 6.847656 -4.445312 6.457031 -4.210938 5.96875 -4.078125 L 8.265625 0 Z M 3.078125 -5.6875 L 4.828125 -5.6875 C 5.085938 -5.6875 5.296875 -5.757812 5.453125 -5.90625 C 5.617188 -6.050781 5.726562 -6.234375 5.78125 -6.453125 C 5.84375 -6.679688 5.84375 -6.90625 5.78125 -7.125 C 5.726562 -7.34375 5.617188 -7.523438 5.453125 -7.671875 C 5.296875 -7.828125 5.085938 -7.90625 4.828125 -7.90625 L 3.078125 -7.90625 Z M 3.078125 -5.6875 "/></g></g></g><g fill="#0097b2" fill-opacity="1"><g transform="translate(25.219299, 11.409879)"><g><path d="M 8.234375 -0.609375 C 7.859375 -0.398438 7.453125 -0.234375 7.015625 -0.109375 C 6.585938 0.00390625 6.140625 0.0625 5.671875 0.0625 C 4.867188 0.0625 4.15625 -0.078125 3.53125 -0.359375 C 2.90625 -0.640625 2.378906 -1.007812 1.953125 -1.46875 C 1.535156 -1.9375 1.21875 -2.460938 1 -3.046875 C 0.78125 -3.628906 0.664062 -4.234375 0.65625 -4.859375 C 0.65625 -5.484375 0.753906 -6.085938 0.953125 -6.671875 C 1.148438 -7.265625 1.453125 -7.800781 1.859375 -8.28125 C 2.273438 -8.769531 2.800781 -9.164062 3.4375 -9.46875 C 4.070312 -9.769531 4.816406 -9.929688 5.671875 -9.953125 C 6.066406 -9.972656 6.425781 -9.957031 6.75 -9.90625 C 7.082031 -9.851562 7.359375 -9.789062 7.578125 -9.71875 C 7.796875 -9.65625 7.929688 -9.613281 7.984375 -9.59375 L 7.75 -7.59375 C 7.550781 -7.675781 7.285156 -7.757812 6.953125 -7.84375 C 6.628906 -7.9375 6.203125 -7.972656 5.671875 -7.953125 C 5.109375 -7.929688 4.625 -7.804688 4.21875 -7.578125 C 3.820312 -7.347656 3.503906 -7.050781 3.265625 -6.6875 C 3.035156 -6.332031 2.878906 -5.941406 2.796875 -5.515625 C 2.722656 -5.097656 2.726562 -4.675781 2.8125 -4.25 C 2.894531 -3.832031 3.054688 -3.445312 3.296875 -3.09375 C 3.546875 -2.738281 3.867188 -2.453125 4.265625 -2.234375 C 4.660156 -2.023438 5.128906 -1.921875 5.671875 -1.921875 C 5.765625 -1.921875 5.859375 -1.925781 5.953125 -1.9375 C 6.046875 -1.957031 6.140625 -1.96875 6.234375 -1.96875 L 6.234375 -4.9375 L 8.234375 -4.9375 Z M 8.234375 -0.609375 "/></g></g></g><g fill="#0097b2" fill-opacity="1"><g transform="translate(34.50896, 11.409879)"><g><path d="M 0.65625 -0.640625 L 0.890625 -2.703125 C 1.273438 -2.441406 1.648438 -2.253906 2.015625 -2.140625 C 2.390625 -2.023438 2.726562 -1.957031 3.03125 -1.9375 C 3.34375 -1.914062 3.570312 -1.910156 3.71875 -1.921875 C 4.007812 -1.941406 4.257812 -2.046875 4.46875 -2.234375 C 4.675781 -2.421875 4.765625 -2.648438 4.734375 -2.921875 C 4.710938 -3.203125 4.601562 -3.414062 4.40625 -3.5625 C 4.21875 -3.707031 3.988281 -3.828125 3.71875 -3.921875 C 3.195312 -4.117188 2.710938 -4.34375 2.265625 -4.59375 C 1.828125 -4.84375 1.46875 -5.15625 1.1875 -5.53125 C 0.914062 -5.914062 0.78125 -6.382812 0.78125 -6.9375 C 0.78125 -7.488281 0.894531 -7.988281 1.125 -8.4375 C 1.363281 -8.882812 1.695312 -9.238281 2.125 -9.5 C 2.550781 -9.769531 3.035156 -9.914062 3.578125 -9.9375 C 3.835938 -9.957031 4.148438 -9.945312 4.515625 -9.90625 C 4.890625 -9.875 5.394531 -9.75 6.03125 -9.53125 L 5.78125 -7.625 C 5.238281 -7.84375 4.804688 -7.96875 4.484375 -8 C 4.160156 -8.03125 3.921875 -8.039062 3.765625 -8.03125 C 3.421875 -8.019531 3.164062 -7.898438 3 -7.671875 C 2.84375 -7.453125 2.773438 -7.207031 2.796875 -6.9375 C 2.816406 -6.65625 2.929688 -6.441406 3.140625 -6.296875 C 3.359375 -6.160156 3.609375 -6.039062 3.890625 -5.9375 C 4.410156 -5.75 4.882812 -5.519531 5.3125 -5.25 C 5.75 -4.976562 6.097656 -4.648438 6.359375 -4.265625 C 6.617188 -3.890625 6.75 -3.441406 6.75 -2.921875 C 6.75 -2.367188 6.628906 -1.875 6.390625 -1.4375 C 6.148438 -1 5.804688 -0.644531 5.359375 -0.375 C 4.921875 -0.101562 4.390625 0.046875 3.765625 0.078125 C 3.585938 0.0859375 3.335938 0.0820312 3.015625 0.0625 C 2.703125 0.0390625 2.34375 -0.0195312 1.9375 -0.125 C 1.53125 -0.238281 1.101562 -0.410156 0.65625 -0.640625 Z M 0.65625 -0.640625 "/></g></g></g><g fill="#0097b2" fill-opacity="1"><g transform="translate(41.810938, 11.409879)"><g><path d="M 7.390625 -7.578125 C 7.203125 -7.679688 6.976562 -7.78125 6.71875 -7.875 C 6.457031 -7.96875 6.109375 -8.015625 5.671875 -8.015625 C 5.109375 -8.015625 4.628906 -7.90625 4.234375 -7.6875 C 3.835938 -7.46875 3.519531 -7.175781 3.28125 -6.8125 C 3.039062 -6.457031 2.878906 -6.066406 2.796875 -5.640625 C 2.710938 -5.210938 2.710938 -4.785156 2.796875 -4.359375 C 2.878906 -3.929688 3.039062 -3.535156 3.28125 -3.171875 C 3.519531 -2.816406 3.835938 -2.53125 4.234375 -2.3125 C 4.628906 -2.09375 5.109375 -1.984375 5.671875 -1.984375 C 6.109375 -1.984375 6.488281 -2.035156 6.8125 -2.140625 C 7.144531 -2.242188 7.398438 -2.34375 7.578125 -2.4375 L 7.84375 -0.390625 C 7.539062 -0.265625 7.191406 -0.160156 6.796875 -0.078125 C 6.398438 -0.00390625 6.023438 0.03125 5.671875 0.03125 C 4.835938 0.03125 4.109375 -0.109375 3.484375 -0.390625 C 2.859375 -0.671875 2.332031 -1.050781 1.90625 -1.53125 C 1.488281 -2.007812 1.175781 -2.546875 0.96875 -3.140625 C 0.757812 -3.734375 0.65625 -4.347656 0.65625 -4.984375 C 0.65625 -5.617188 0.757812 -6.234375 0.96875 -6.828125 C 1.175781 -7.421875 1.488281 -7.957031 1.90625 -8.4375 C 2.332031 -8.914062 2.859375 -9.296875 3.484375 -9.578125 C 4.109375 -9.859375 4.835938 -10 5.671875 -10 C 6.390625 -10 7.039062 -9.867188 7.625 -9.609375 Z M 7.390625 -7.578125 "/></g></g></g><g fill="#0097b2" fill-opacity="1"><g transform="translate(50.120558, 11.409879)"><g><path d="M 8.015625 0 L 6.03125 0 L 6.03125 -3.953125 L 3.078125 -3.953125 L 3.078125 0 L 1.109375 0 L 1.109375 -9.875 L 3.078125 -9.875 L 3.078125 -5.921875 L 6.03125 -5.921875 L 6.03125 -9.875 L 8.015625 -9.875 Z M 8.015625 0 "/></g></g></g><g fill="#0097b2" fill-opacity="1"><g transform="translate(59.244568, 11.409879)"><g><path d="M 6.21875 0 L 1.109375 0 L 1.109375 -9.875 L 6.046875 -9.875 L 6.046875 -7.90625 L 3.078125 -7.90625 L 3.078125 -5.921875 L 5.671875 -5.921875 L 5.671875 -3.953125 L 3.078125 -3.953125 L 3.078125 -1.96875 L 6.21875 -1.96875 Z M 6.21875 0 "/></g></g></g><g fill="#0097b2" fill-opacity="1"><g transform="translate(66.201464, 11.409879)"><g><path d="M 3.078125 -5.375 L 3.078125 0 L 1.109375 0 L 1.109375 -10.078125 L 1.625 -10.078125 L 6.609375 -4.28125 L 6.609375 -9.859375 L 8.609375 -9.859375 L 8.609375 0.203125 L 8.078125 0.203125 Z M 3.078125 -5.375 "/></g></g></g><g fill="#0097b2" fill-opacity="1"><g transform="translate(75.919024, 11.409879)"><g><path d="M 8.015625 0 L 6.03125 0 L 6.03125 -3.953125 L 3.078125 -3.953125 L 3.078125 0 L 1.109375 0 L 1.109375 -9.875 L 3.078125 -9.875 L 3.078125 -5.921875 L 6.03125 -5.921875 L 6.03125 -9.875 L 8.015625 -9.875 Z M 8.015625 0 "/></g></g></g><g fill="#0097b2" fill-opacity="1"><g transform="translate(85.043035, 11.409879)"><g><path d="M 5.859375 0.140625 C 5.003906 0.140625 4.257812 0 3.625 -0.28125 C 2.988281 -0.570312 2.457031 -0.957031 2.03125 -1.4375 C 1.601562 -1.925781 1.285156 -2.472656 1.078125 -3.078125 C 0.867188 -3.679688 0.765625 -4.300781 0.765625 -4.9375 C 0.765625 -5.582031 0.867188 -6.207031 1.078125 -6.8125 C 1.285156 -7.425781 1.601562 -7.972656 2.03125 -8.453125 C 2.457031 -8.941406 2.988281 -9.328125 3.625 -9.609375 C 4.257812 -9.898438 5.003906 -10.046875 5.859375 -10.046875 C 6.703125 -10.046875 7.441406 -9.898438 8.078125 -9.609375 C 8.722656 -9.328125 9.253906 -8.941406 9.671875 -8.453125 C 10.097656 -7.972656 10.414062 -7.425781 10.625 -6.8125 C 10.84375 -6.207031 10.953125 -5.582031 10.953125 -4.9375 C 10.953125 -4.300781 10.84375 -3.679688 10.625 -3.078125 C 10.414062 -2.472656 10.097656 -1.925781 9.671875 -1.4375 C 9.253906 -0.957031 8.722656 -0.570312 8.078125 -0.28125 C 7.441406 0 6.703125 0.140625 5.859375 0.140625 Z M 5.859375 -1.90625 C 6.421875 -1.90625 6.90625 -2.015625 7.3125 -2.234375 C 7.71875 -2.453125 8.039062 -2.742188 8.28125 -3.109375 C 8.519531 -3.472656 8.675781 -3.867188 8.75 -4.296875 C 8.832031 -4.734375 8.832031 -5.164062 8.75 -5.59375 C 8.675781 -6.03125 8.519531 -6.429688 8.28125 -6.796875 C 8.039062 -7.160156 7.71875 -7.453125 7.3125 -7.671875 C 6.90625 -7.898438 6.421875 -8.015625 5.859375 -8.015625 C 5.296875 -8.015625 4.8125 -7.898438 4.40625 -7.671875 C 4 -7.453125 3.675781 -7.160156 3.4375 -6.796875 C 3.195312 -6.429688 3.035156 -6.03125 2.953125 -5.59375 C 2.867188 -5.164062 2.867188 -4.734375 2.953125 -4.296875 C 3.035156 -3.867188 3.195312 -3.472656 3.4375 -3.109375 C 3.675781 -2.742188 4 -2.453125 4.40625 -2.234375 C 4.8125 -2.015625 5.296875 -1.90625 5.859375 -1.90625 Z M 5.859375 -1.90625 "/></g></g></g><g fill="#0097b2" fill-opacity="1"><g transform="translate(96.73447, 11.409879)"><g><path d="M 6.21875 0 L 1.109375 0 L 1.109375 -9.875 L 6.046875 -9.875 L 6.046875 -7.90625 L 3.078125 -7.90625 L 3.078125 -5.921875 L 5.671875 -5.921875 L 5.671875 -3.953125 L 3.078125 -3.953125 L 3.078125 -1.96875 L 6.21875 -1.96875 Z M 6.21875 0 "/></g></g></g><g fill="#0097b2" fill-opacity="1"><g transform="translate(103.691366, 11.409879)"><g><path d="M 1.109375 0 L 1.109375 -9.875 L 3.078125 -9.875 L 3.078125 -5.9375 L 5.5625 -9.875 L 7.875 -9.875 L 4.671875 -5 L 8.15625 0 L 5.703125 0 L 3.078125 -3.875 L 3.078125 0 Z M 1.109375 0 "/></g></g></g></g></g><g fill="#0097b2" fill-opacity="1"><g transform="translate(163.483271, 176.653539)"><g><path d="M 0.75 0 L 0.75 -8.40625 L 3.984375 -8.40625 C 4.609375 -8.40625 5.191406 -8.296875 5.734375 -8.078125 C 6.273438 -7.859375 6.742188 -7.5625 7.140625 -7.1875 C 7.535156 -6.8125 7.847656 -6.363281 8.078125 -5.84375 C 8.304688 -5.320312 8.421875 -4.765625 8.421875 -4.171875 C 8.421875 -3.585938 8.304688 -3.039062 8.078125 -2.53125 C 7.847656 -2.019531 7.535156 -1.578125 7.140625 -1.203125 C 6.742188 -0.828125 6.273438 -0.53125 5.734375 -0.3125 C 5.191406 -0.101562 4.609375 0 3.984375 0 Z M 3.96875 -6.859375 L 2.5 -6.859375 L 2.5 -1.546875 L 3.96875 -1.546875 C 4.34375 -1.546875 4.691406 -1.613281 5.015625 -1.75 C 5.335938 -1.882812 5.617188 -2.066406 5.859375 -2.296875 C 6.097656 -2.535156 6.285156 -2.816406 6.421875 -3.140625 C 6.554688 -3.460938 6.625 -3.804688 6.625 -4.171875 C 6.625 -4.546875 6.554688 -4.894531 6.421875 -5.21875 C 6.285156 -5.550781 6.097656 -5.835938 5.859375 -6.078125 C 5.617188 -6.316406 5.335938 -6.503906 5.015625 -6.640625 C 4.691406 -6.785156 4.34375 -6.859375 3.96875 -6.859375 Z M 3.96875 -6.859375 "/></g></g></g><g fill="#0097b2" fill-opacity="1"><g transform="translate(173.23929, 176.653539)"><g><path d="M 6.25 -0.78125 C 5.863281 -0.46875 5.46875 -0.238281 5.0625 -0.09375 C 4.664062 0.0507812 4.21875 0.125 3.71875 0.125 C 3.25 0.125 2.804688 0.0390625 2.390625 -0.125 C 1.984375 -0.300781 1.628906 -0.53125 1.328125 -0.8125 C 1.023438 -1.101562 0.785156 -1.445312 0.609375 -1.84375 C 0.441406 -2.238281 0.359375 -2.664062 0.359375 -3.125 C 0.359375 -3.570312 0.441406 -3.992188 0.609375 -4.390625 C 0.773438 -4.785156 1 -5.128906 1.28125 -5.421875 C 1.570312 -5.710938 1.914062 -5.941406 2.3125 -6.109375 C 2.707031 -6.273438 3.128906 -6.359375 3.578125 -6.359375 C 4.015625 -6.359375 4.421875 -6.269531 4.796875 -6.09375 C 5.179688 -5.925781 5.507812 -5.691406 5.78125 -5.390625 C 6.0625 -5.097656 6.28125 -4.742188 6.4375 -4.328125 C 6.59375 -3.921875 6.671875 -3.476562 6.671875 -3 L 6.671875 -2.5625 L 2.015625 -2.5625 C 2.128906 -2.175781 2.34375 -1.863281 2.65625 -1.625 C 2.976562 -1.382812 3.359375 -1.265625 3.796875 -1.265625 C 4.066406 -1.265625 4.320312 -1.304688 4.5625 -1.390625 C 4.800781 -1.484375 5.003906 -1.609375 5.171875 -1.765625 Z M 3.546875 -5 C 3.160156 -5 2.832031 -4.882812 2.5625 -4.65625 C 2.289062 -4.425781 2.101562 -4.125 2 -3.75 L 5.0625 -3.75 C 4.957031 -4.113281 4.765625 -4.410156 4.484375 -4.640625 C 4.210938 -4.878906 3.898438 -5 3.546875 -5 Z M 3.546875 -5 "/></g></g></g><g fill="#0097b2" fill-opacity="1"><g transform="translate(181.171304, 176.653539)"><g><path d="M 0.640625 0 L 0.640625 -6.25 L 2.296875 -6.25 L 2.296875 -5.765625 C 2.535156 -5.960938 2.800781 -6.113281 3.09375 -6.21875 C 3.382812 -6.320312 3.703125 -6.375 4.046875 -6.375 C 4.765625 -6.375 5.351562 -6.140625 5.8125 -5.671875 C 6.28125 -5.210938 6.515625 -4.617188 6.515625 -3.890625 L 6.515625 0 L 4.875 0 L 4.875 -3.640625 C 4.875 -4.035156 4.753906 -4.351562 4.515625 -4.59375 C 4.273438 -4.832031 3.960938 -4.953125 3.578125 -4.953125 C 3.304688 -4.953125 3.0625 -4.894531 2.84375 -4.78125 C 2.625 -4.675781 2.441406 -4.523438 2.296875 -4.328125 L 2.296875 0 Z M 0.640625 0 "/></g></g></g><g fill="#0097b2" fill-opacity="1"><g transform="translate(189.187318, 176.653539)"><g><path d="M 1.5 -1.765625 L 1.5 -4.875 L 0.21875 -4.875 L 0.21875 -6.25 L 1.5 -6.25 L 1.5 -7.84375 L 3.140625 -8.21875 L 3.140625 -6.25 L 4.921875 -6.25 L 4.921875 -4.875 L 3.140625 -4.875 L 3.140625 -2.09375 C 3.140625 -1.800781 3.203125 -1.59375 3.328125 -1.46875 C 3.460938 -1.351562 3.691406 -1.296875 4.015625 -1.296875 C 4.160156 -1.296875 4.300781 -1.304688 4.4375 -1.328125 C 4.570312 -1.347656 4.722656 -1.382812 4.890625 -1.4375 L 4.890625 -0.09375 C 4.710938 -0.0390625 4.5 0 4.25 0.03125 C 4 0.0703125 3.785156 0.09375 3.609375 0.09375 C 2.910156 0.09375 2.382812 -0.0625 2.03125 -0.375 C 1.675781 -0.695312 1.5 -1.160156 1.5 -1.765625 Z M 1.5 -1.765625 "/></g></g></g><g fill="#0097b2" fill-opacity="1"><g transform="translate(195.175324, 176.653539)"><g><path d="M 2.625 0.109375 C 1.957031 0.109375 1.410156 -0.0664062 0.984375 -0.421875 C 0.554688 -0.773438 0.34375 -1.238281 0.34375 -1.8125 C 0.34375 -2.40625 0.570312 -2.867188 1.03125 -3.203125 C 1.488281 -3.535156 2.117188 -3.703125 2.921875 -3.703125 C 3.171875 -3.703125 3.421875 -3.679688 3.671875 -3.640625 C 3.929688 -3.609375 4.1875 -3.550781 4.4375 -3.46875 L 4.4375 -3.90625 C 4.4375 -4.269531 4.320312 -4.539062 4.09375 -4.71875 C 3.875 -4.90625 3.550781 -5 3.125 -5 C 2.851562 -5 2.5625 -4.957031 2.25 -4.875 C 1.945312 -4.789062 1.601562 -4.660156 1.21875 -4.484375 L 0.609375 -5.703125 C 1.097656 -5.921875 1.570312 -6.085938 2.03125 -6.203125 C 2.488281 -6.316406 2.941406 -6.375 3.390625 -6.375 C 4.234375 -6.375 4.890625 -6.171875 5.359375 -5.765625 C 5.828125 -5.359375 6.0625 -4.789062 6.0625 -4.0625 L 6.0625 0 L 4.4375 0 L 4.4375 -0.4375 C 4.175781 -0.25 3.898438 -0.109375 3.609375 -0.015625 C 3.316406 0.0664062 2.988281 0.109375 2.625 0.109375 Z M 1.921875 -1.84375 C 1.921875 -1.601562 2.023438 -1.410156 2.234375 -1.265625 C 2.441406 -1.128906 2.71875 -1.0625 3.0625 -1.0625 C 3.332031 -1.0625 3.582031 -1.09375 3.8125 -1.15625 C 4.039062 -1.226562 4.25 -1.332031 4.4375 -1.46875 L 4.4375 -2.40625 C 4.238281 -2.476562 4.03125 -2.53125 3.8125 -2.5625 C 3.59375 -2.601562 3.363281 -2.625 3.125 -2.625 C 2.75 -2.625 2.453125 -2.550781 2.234375 -2.40625 C 2.023438 -2.269531 1.921875 -2.082031 1.921875 -1.84375 Z M 1.921875 -1.84375 "/></g></g></g><g fill="#0097b2" fill-opacity="1"><g transform="translate(202.735336, 176.653539)"><g><path d="M 2.296875 -8.765625 L 2.296875 0 L 0.640625 0 L 0.640625 -8.40625 Z M 2.296875 -8.765625 "/></g></g></g><g fill="#0097b2" fill-opacity="1"><g transform="translate(206.563339, 176.653539)"><g/></g></g><g fill="#0097b2" fill-opacity="1"><g transform="translate(209.875339, 176.653539)"><g><path d="M 4.953125 -1.484375 C 5.390625 -1.484375 5.800781 -1.578125 6.1875 -1.765625 C 6.570312 -1.953125 6.914062 -2.21875 7.21875 -2.5625 L 8.359375 -1.421875 C 7.953125 -0.953125 7.4375 -0.578125 6.8125 -0.296875 C 6.195312 -0.015625 5.5625 0.125 4.90625 0.125 C 4.269531 0.125 3.675781 0.015625 3.125 -0.203125 C 2.582031 -0.429688 2.109375 -0.738281 1.703125 -1.125 C 1.304688 -1.507812 0.992188 -1.960938 0.765625 -2.484375 C 0.546875 -3.015625 0.4375 -3.585938 0.4375 -4.203125 C 0.4375 -4.804688 0.550781 -5.375 0.78125 -5.90625 C 1.007812 -6.4375 1.320312 -6.894531 1.71875 -7.28125 C 2.125 -7.664062 2.597656 -7.96875 3.140625 -8.1875 C 3.691406 -8.414062 4.28125 -8.53125 4.90625 -8.53125 C 5.582031 -8.53125 6.234375 -8.390625 6.859375 -8.109375 C 7.492188 -7.828125 8.007812 -7.441406 8.40625 -6.953125 L 7.21875 -5.796875 C 6.925781 -6.160156 6.578125 -6.441406 6.171875 -6.640625 C 5.773438 -6.835938 5.351562 -6.9375 4.90625 -6.9375 C 4.53125 -6.9375 4.175781 -6.863281 3.84375 -6.71875 C 3.507812 -6.582031 3.222656 -6.390625 2.984375 -6.140625 C 2.742188 -5.898438 2.554688 -5.613281 2.421875 -5.28125 C 2.285156 -4.945312 2.21875 -4.585938 2.21875 -4.203125 C 2.21875 -3.816406 2.285156 -3.457031 2.421875 -3.125 C 2.566406 -2.789062 2.757812 -2.503906 3 -2.265625 C 3.25 -2.023438 3.539062 -1.832031 3.875 -1.6875 C 4.207031 -1.550781 4.566406 -1.484375 4.953125 -1.484375 Z M 4.953125 -1.484375 "/></g></g></g><g fill="#0097b2" fill-opacity="1"><g transform="translate(219.391353, 176.653539)"><g><path d="M 2.296875 -8.765625 L 2.296875 0 L 0.640625 0 L 0.640625 -8.40625 Z M 2.296875 -8.765625 "/></g></g></g><g fill="#0097b2" fill-opacity="1"><g transform="translate(223.219355, 176.653539)"><g><path d="M 1.46875 -7 C 1.207031 -7 0.984375 -7.085938 0.796875 -7.265625 C 0.617188 -7.453125 0.53125 -7.675781 0.53125 -7.9375 C 0.53125 -8.1875 0.617188 -8.40625 0.796875 -8.59375 C 0.984375 -8.78125 1.207031 -8.875 1.46875 -8.875 C 1.71875 -8.875 1.9375 -8.78125 2.125 -8.59375 C 2.3125 -8.40625 2.40625 -8.1875 2.40625 -7.9375 C 2.40625 -7.675781 2.3125 -7.453125 2.125 -7.265625 C 1.9375 -7.085938 1.71875 -7 1.46875 -7 Z M 2.296875 -6.25 L 2.296875 0 L 0.640625 0 L 0.640625 -6.25 Z M 2.296875 -6.25 "/></g></g></g><g fill="#0097b2" fill-opacity="1"><g transform="translate(227.047358, 176.653539)"><g><path d="M 0.640625 0 L 0.640625 -6.25 L 2.296875 -6.25 L 2.296875 -5.765625 C 2.535156 -5.960938 2.800781 -6.113281 3.09375 -6.21875 C 3.382812 -6.320312 3.703125 -6.375 4.046875 -6.375 C 4.765625 -6.375 5.351562 -6.140625 5.8125 -5.671875 C 6.28125 -5.210938 6.515625 -4.617188 6.515625 -3.890625 L 6.515625 0 L 4.875 0 L 4.875 -3.640625 C 4.875 -4.035156 4.753906 -4.351562 4.515625 -4.59375 C 4.273438 -4.832031 3.960938 -4.953125 3.578125 -4.953125 C 3.304688 -4.953125 3.0625 -4.894531 2.84375 -4.78125 C 2.625 -4.675781 2.441406 -4.523438 2.296875 -4.328125 L 2.296875 0 Z M 0.640625 0 "/></g></g></g><g fill="#0097b2" fill-opacity="1"><g transform="translate(235.063372, 176.653539)"><g><path d="M 1.46875 -7 C 1.207031 -7 0.984375 -7.085938 0.796875 -7.265625 C 0.617188 -7.453125 0.53125 -7.675781 0.53125 -7.9375 C 0.53125 -8.1875 0.617188 -8.40625 0.796875 -8.59375 C 0.984375 -8.78125 1.207031 -8.875 1.46875 -8.875 C 1.71875 -8.875 1.9375 -8.78125 2.125 -8.59375 C 2.3125 -8.40625 2.40625 -8.1875 2.40625 -7.9375 C 2.40625 -7.675781 2.3125 -7.453125 2.125 -7.265625 C 1.9375 -7.085938 1.71875 -7 1.46875 -7 Z M 2.296875 -6.25 L 2.296875 0 L 0.640625 0 L 0.640625 -6.25 Z M 2.296875 -6.25 "/></g></g></g><g fill="#0097b2" fill-opacity="1"><g transform="translate(238.891374, 176.653539)"><g><path d="M 3.703125 -1.3125 C 3.984375 -1.3125 4.242188 -1.367188 4.484375 -1.484375 C 4.734375 -1.597656 4.972656 -1.773438 5.203125 -2.015625 L 6.1875 -1 C 5.863281 -0.644531 5.476562 -0.367188 5.03125 -0.171875 C 4.582031 0.0234375 4.117188 0.125 3.640625 0.125 C 3.179688 0.125 2.75 0.0390625 2.34375 -0.125 C 1.9375 -0.300781 1.585938 -0.53125 1.296875 -0.8125 C 1.003906 -1.101562 0.773438 -1.445312 0.609375 -1.84375 C 0.441406 -2.238281 0.359375 -2.664062 0.359375 -3.125 C 0.359375 -3.570312 0.441406 -3.992188 0.609375 -4.390625 C 0.773438 -4.785156 1.003906 -5.128906 1.296875 -5.421875 C 1.585938 -5.722656 1.9375 -5.957031 2.34375 -6.125 C 2.75 -6.289062 3.179688 -6.375 3.640625 -6.375 C 4.128906 -6.375 4.601562 -6.273438 5.0625 -6.078125 C 5.519531 -5.878906 5.910156 -5.601562 6.234375 -5.25 L 5.21875 -4.1875 C 5 -4.4375 4.757812 -4.625 4.5 -4.75 C 4.238281 -4.875 3.960938 -4.9375 3.671875 -4.9375 C 3.203125 -4.9375 2.800781 -4.757812 2.46875 -4.40625 C 2.144531 -4.0625 1.984375 -3.632812 1.984375 -3.125 C 1.984375 -2.613281 2.148438 -2.179688 2.484375 -1.828125 C 2.816406 -1.484375 3.222656 -1.3125 3.703125 -1.3125 Z M 3.703125 -1.3125 "/></g></g></g></svg>