<svg xmlns="http://www.w3.org/2000/svg" xmlns:xlink="http://www.w3.org/1999/xlink" width="500" zoomAndPan="magnify" viewBox="0 0 375 374.999991" height="500" preserveAspectRatio="xMidYMid meet" version="1.0"><defs><g/><clipPath id="c80e346a23"><path d="M 56.261719 93.769531 L 148.421875 93.769531 L 148.421875 197.160156 L 56.261719 197.160156 Z M 56.261719 93.769531 " clip-rule="nonzero"/></clipPath><clipPath id="421fc8f535"><path d="M 297.101562 86.261719 L 331.503906 86.261719 L 331.503906 120.832031 L 297.101562 120.832031 Z M 297.101562 86.261719 " clip-rule="nonzero"/></clipPath></defs><path fill="#1a477e" d="M 109.394531 160.851562 C 109.394531 160.851562 109.4375 160.816406 109.527344 160.746094 C 109.617188 160.679688 109.75 160.578125 109.941406 160.460938 C 110.128906 160.34375 110.371094 160.207031 110.675781 160.066406 C 110.976562 159.929688 111.339844 159.777344 111.777344 159.671875 C 112.214844 159.5625 112.722656 159.476562 113.304688 159.492188 C 113.878906 159.507812 114.53125 159.605469 115.191406 159.871094 C 115.523438 160 115.855469 160.164062 116.179688 160.363281 C 116.507812 160.5625 116.820312 160.804688 117.121094 161.070312 C 117.730469 161.605469 118.28125 162.257812 118.753906 162.996094 C 118.8125 163.082031 118.871094 163.171875 118.929688 163.265625 C 118.984375 163.355469 119.042969 163.449219 119.101562 163.542969 C 119.210938 163.726562 119.320312 163.917969 119.429688 164.105469 C 119.644531 164.492188 119.847656 164.886719 120.046875 165.292969 C 120.246094 165.699219 120.441406 166.117188 120.632812 166.546875 C 120.820312 166.976562 121.003906 167.414062 121.1875 167.859375 C 121.367188 168.308594 121.550781 168.761719 121.726562 169.226562 C 121.898438 169.691406 122.074219 170.167969 122.253906 170.648438 C 122.425781 171.125 122.605469 171.613281 122.785156 172.109375 C 122.957031 172.601562 123.132812 173.101562 123.3125 173.613281 C 123.496094 174.113281 123.679688 174.625 123.867188 175.140625 C 124.050781 175.65625 124.242188 176.171875 124.441406 176.691406 C 124.640625 177.207031 124.851562 177.726562 125.070312 178.238281 C 125.28125 178.753906 125.507812 179.265625 125.75 179.765625 C 125.988281 180.265625 126.246094 180.753906 126.523438 181.214844 C 126.789062 181.679688 127.078125 182.121094 127.382812 182.511719 C 127.691406 182.90625 128.015625 183.246094 128.34375 183.507812 C 128.664062 183.773438 128.984375 183.964844 129.308594 184.082031 C 129.636719 184.199219 129.984375 184.25 130.386719 184.234375 C 130.589844 184.230469 130.804688 184.207031 131.035156 184.164062 C 131.089844 184.152344 131.148438 184.144531 131.207031 184.128906 L 131.292969 184.109375 C 131.316406 184.105469 131.230469 184.128906 131.296875 184.109375 L 131.359375 184.089844 C 131.390625 184.082031 131.398438 184.078125 131.386719 184.082031 C 131.382812 184.082031 131.378906 184.082031 131.378906 184.085938 C 131.363281 184.089844 131.382812 184.082031 131.390625 184.078125 C 131.410156 184.070312 131.425781 184.0625 131.445312 184.054688 C 131.519531 184.015625 131.609375 183.957031 131.71875 183.855469 C 131.824219 183.75 131.949219 183.601562 132.070312 183.417969 C 132.320312 183.050781 132.5625 182.546875 132.773438 181.984375 C 133.195312 180.851562 133.511719 179.507812 133.78125 178.117188 C 134.050781 176.722656 134.269531 175.261719 134.476562 173.765625 C 135.292969 167.765625 135.964844 161.238281 137.40625 154.550781 C 138.121094 151.207031 139.023438 147.820312 140.25 144.46875 C 141.472656 141.125 143.015625 137.804688 145 134.691406 C 146.980469 131.582031 149.414062 128.675781 152.289062 126.238281 C 155.148438 123.792969 158.421875 121.824219 161.875 120.382812 C 165.328125 118.9375 168.949219 118.003906 172.578125 117.460938 C 176.203125 116.917969 179.851562 116.746094 183.417969 116.824219 C 190.582031 116.96875 197.515625 118.039062 204.101562 119.394531 C 207.394531 120.082031 210.605469 120.851562 213.730469 121.636719 C 216.855469 122.421875 219.898438 123.230469 222.855469 124.027344 C 225.808594 124.816406 228.679688 125.589844 231.460938 126.304688 C 234.242188 127.027344 236.933594 127.695312 239.523438 128.296875 C 242.117188 128.890625 244.609375 129.425781 246.992188 129.875 C 249.371094 130.324219 251.640625 130.695312 253.777344 130.996094 C 258.058594 131.589844 261.820312 131.882812 264.925781 131.988281 C 268.03125 132.105469 270.476562 132.019531 272.140625 131.949219 C 272.558594 131.929688 272.925781 131.914062 273.242188 131.898438 C 273.558594 131.875 273.828125 131.859375 274.042969 131.84375 C 274.472656 131.816406 274.695312 131.800781 274.695312 131.800781 C 274.695312 131.800781 274.472656 131.828125 274.046875 131.882812 C 273.832031 131.90625 273.566406 131.941406 273.25 131.980469 C 272.933594 132.015625 272.566406 132.054688 272.152344 132.097656 C 271.734375 132.144531 271.273438 132.183594 270.761719 132.226562 C 270.25 132.273438 269.6875 132.308594 269.085938 132.347656 C 268.480469 132.394531 267.828125 132.414062 267.132812 132.453125 C 266.441406 132.472656 265.699219 132.503906 264.921875 132.511719 C 263.359375 132.535156 261.628906 132.53125 259.746094 132.457031 C 257.859375 132.382812 255.828125 132.253906 253.65625 132.050781 C 249.320312 131.640625 244.445312 130.9375 239.183594 129.925781 C 236.550781 129.421875 233.816406 128.855469 231 128.234375 C 228.183594 127.609375 225.28125 126.9375 222.300781 126.246094 C 216.339844 124.871094 210.074219 123.390625 203.554688 122.230469 C 200.296875 121.648438 196.976562 121.144531 193.609375 120.789062 C 190.242188 120.4375 186.820312 120.234375 183.394531 120.238281 C 179.957031 120.238281 176.527344 120.476562 173.152344 121.058594 C 169.785156 121.644531 166.476562 122.558594 163.382812 123.921875 C 160.289062 125.277344 157.421875 127.082031 154.921875 129.292969 C 152.421875 131.5 150.289062 134.09375 148.542969 136.925781 C 146.796875 139.757812 145.421875 142.808594 144.328125 145.933594 C 143.238281 149.066406 142.410156 152.269531 141.757812 155.46875 C 141.101562 158.667969 140.621094 161.867188 140.210938 165.027344 C 139.796875 168.1875 139.46875 171.308594 139.066406 174.386719 C 138.863281 175.925781 138.644531 177.457031 138.359375 178.988281 C 138.070312 180.519531 137.738281 182.050781 137.164062 183.625 C 136.871094 184.410156 136.515625 185.214844 135.984375 186.027344 C 135.714844 186.433594 135.398438 186.84375 135.003906 187.230469 C 134.609375 187.617188 134.132812 187.980469 133.589844 188.257812 C 133.453125 188.328125 133.316406 188.390625 133.171875 188.449219 C 133.097656 188.480469 133.039062 188.507812 132.941406 188.539062 L 132.808594 188.585938 L 132.714844 188.617188 L 132.53125 188.667969 L 132.371094 188.714844 C 132.261719 188.746094 132.148438 188.769531 132.039062 188.796875 C 131.597656 188.902344 131.132812 188.976562 130.65625 189.011719 C 129.699219 189.074219 128.683594 188.957031 127.746094 188.632812 C 126.808594 188.316406 125.976562 187.816406 125.289062 187.257812 C 124.605469 186.6875 124.050781 186.070312 123.578125 185.445312 C 123.105469 184.824219 122.710938 184.195312 122.367188 183.574219 C 122.027344 182.949219 121.734375 182.328125 121.46875 181.71875 C 121.207031 181.109375 120.972656 180.511719 120.757812 179.917969 C 120.542969 179.324219 120.359375 178.742188 120.179688 178.167969 C 120.003906 177.59375 119.839844 177.03125 119.683594 176.480469 C 119.53125 175.925781 119.390625 175.378906 119.257812 174.84375 C 119.125 174.3125 118.996094 173.789062 118.867188 173.277344 C 118.746094 172.765625 118.632812 172.261719 118.515625 171.765625 C 118.285156 170.789062 118.066406 169.851562 117.851562 168.945312 C 117.746094 168.5 117.632812 168.066406 117.523438 167.644531 C 117.414062 167.222656 117.304688 166.8125 117.191406 166.417969 C 117.078125 166.019531 116.957031 165.640625 116.835938 165.273438 C 116.773438 165.089844 116.714844 164.910156 116.652344 164.734375 C 116.621094 164.648438 116.589844 164.566406 116.558594 164.480469 C 116.523438 164.394531 116.492188 164.308594 116.460938 164.226562 C 116.199219 163.585938 115.902344 163.019531 115.5625 162.539062 C 115.214844 162.0625 114.832031 161.667969 114.417969 161.371094 C 114.003906 161.074219 113.5625 160.863281 113.128906 160.730469 C 112.691406 160.601562 112.261719 160.535156 111.871094 160.519531 C 111.082031 160.480469 110.445312 160.585938 110.03125 160.679688 C 109.609375 160.773438 109.394531 160.851562 109.394531 160.851562 " fill-opacity="1" fill-rule="nonzero"/><path fill="#5bbceb" d="M 151.691406 123.234375 C 151.691406 123.234375 151.769531 123.09375 151.914062 122.8125 C 151.988281 122.675781 152.078125 122.503906 152.183594 122.296875 C 152.292969 122.09375 152.429688 121.863281 152.582031 121.597656 C 152.730469 121.328125 152.90625 121.039062 153.105469 120.722656 C 153.296875 120.398438 153.519531 120.054688 153.761719 119.6875 C 154 119.3125 154.28125 118.925781 154.574219 118.507812 C 154.722656 118.300781 154.882812 118.09375 155.046875 117.878906 C 155.128906 117.769531 155.210938 117.660156 155.296875 117.550781 C 155.382812 117.441406 155.472656 117.332031 155.5625 117.21875 C 156.273438 116.316406 157.125 115.367188 158.113281 114.390625 C 159.101562 113.410156 160.246094 112.417969 161.539062 111.449219 C 162.832031 110.476562 164.292969 109.546875 165.898438 108.683594 C 167.5 107.820312 169.261719 107.046875 171.144531 106.371094 C 173.027344 105.695312 175.039062 105.140625 177.144531 104.695312 C 179.25 104.25 181.457031 103.945312 183.726562 103.742188 C 184.859375 103.640625 186.015625 103.570312 187.179688 103.535156 L 187.621094 103.519531 L 188.070312 103.511719 C 188.355469 103.503906 188.644531 103.5 188.929688 103.496094 C 189.5 103.480469 190.105469 103.492188 190.707031 103.496094 C 193.101562 103.511719 195.515625 103.648438 197.976562 103.863281 C 200.433594 104.070312 202.914062 104.386719 205.414062 104.769531 C 206.039062 104.859375 206.664062 104.964844 207.289062 105.066406 C 207.917969 105.167969 208.542969 105.28125 209.167969 105.390625 C 210.425781 105.613281 211.679688 105.863281 212.9375 106.117188 C 214.195312 106.371094 215.453125 106.636719 216.710938 106.914062 C 217.339844 107.050781 217.96875 107.191406 218.601562 107.332031 C 219.226562 107.476562 219.855469 107.625 220.484375 107.769531 C 223 108.363281 225.511719 108.984375 228.015625 109.601562 C 233.019531 110.863281 238 112.117188 242.902344 113.253906 C 244.128906 113.53125 245.351562 113.804688 246.566406 114.0625 C 247.78125 114.328125 248.992188 114.578125 250.199219 114.816406 C 252.609375 115.292969 254.992188 115.703125 257.34375 116.066406 C 262.046875 116.78125 266.617188 117.210938 270.964844 117.335938 C 273.136719 117.40625 275.25 117.398438 277.292969 117.3125 C 279.339844 117.230469 281.3125 117.085938 283.203125 116.878906 C 285.089844 116.667969 286.898438 116.421875 288.613281 116.109375 C 289.46875 115.972656 290.296875 115.792969 291.105469 115.636719 C 291.511719 115.558594 291.910156 115.460938 292.296875 115.375 C 292.6875 115.289062 293.074219 115.203125 293.453125 115.117188 C 296.476562 114.394531 299.085938 113.609375 301.214844 112.890625 C 301.753906 112.71875 302.25 112.53125 302.722656 112.367188 C 303.195312 112.199219 303.644531 112.050781 304.050781 111.890625 C 304.460938 111.738281 304.839844 111.59375 305.1875 111.464844 C 305.363281 111.398438 305.527344 111.335938 305.683594 111.277344 C 305.839844 111.210938 305.988281 111.152344 306.128906 111.097656 C 307.253906 110.644531 307.855469 110.40625 307.855469 110.40625 C 307.855469 110.40625 307.296875 110.734375 306.25 111.347656 C 305.191406 111.941406 303.632812 112.808594 301.582031 113.792969 C 301.066406 114.03125 300.523438 114.285156 299.953125 114.550781 C 299.375 114.800781 298.769531 115.058594 298.136719 115.332031 C 297.507812 115.597656 296.835938 115.851562 296.144531 116.125 C 295.453125 116.390625 294.722656 116.640625 293.972656 116.914062 C 290.964844 117.949219 287.488281 118.917969 283.613281 119.65625 C 283.128906 119.742188 282.640625 119.828125 282.144531 119.917969 C 281.648438 120 281.148438 120.070312 280.640625 120.148438 C 280.386719 120.1875 280.132812 120.226562 279.875 120.261719 C 279.617188 120.292969 279.359375 120.328125 279.101562 120.359375 C 278.582031 120.421875 278.058594 120.5 277.53125 120.546875 C 275.417969 120.78125 273.21875 120.914062 270.960938 120.980469 C 266.441406 121.101562 261.667969 120.886719 256.785156 120.324219 C 254.34375 120.054688 251.875 119.6875 249.386719 119.269531 C 248.144531 119.058594 246.898438 118.835938 245.648438 118.601562 C 244.398438 118.359375 243.148438 118.101562 241.894531 117.835938 C 236.882812 116.789062 231.855469 115.53125 226.847656 114.296875 C 224.351562 113.664062 221.855469 113.035156 219.375 112.4375 C 218.132812 112.136719 216.894531 111.839844 215.664062 111.546875 C 214.429688 111.253906 213.195312 110.972656 211.972656 110.703125 C 210.746094 110.429688 209.523438 110.175781 208.304688 109.929688 C 207.695312 109.804688 207.089844 109.679688 206.484375 109.566406 C 205.878906 109.449219 205.277344 109.328125 204.671875 109.222656 C 202.261719 108.789062 199.875 108.421875 197.523438 108.117188 C 197.230469 108.078125 196.9375 108.042969 196.644531 108.007812 C 196.351562 107.972656 196.058594 107.941406 195.765625 107.910156 C 195.476562 107.878906 195.183594 107.847656 194.894531 107.816406 C 194.601562 107.789062 194.3125 107.761719 194.023438 107.734375 C 193.734375 107.707031 193.445312 107.683594 193.15625 107.65625 C 192.867188 107.628906 192.582031 107.617188 192.296875 107.589844 C 191.722656 107.546875 191.148438 107.5 190.589844 107.476562 C 190.03125 107.445312 189.480469 107.40625 188.894531 107.394531 C 188.609375 107.382812 188.320312 107.375 188.035156 107.363281 L 187.820312 107.355469 L 187.714844 107.351562 C 187.691406 107.351562 187.71875 107.351562 187.683594 107.351562 L 187.628906 107.351562 L 187.214844 107.347656 C 186.109375 107.328125 185.015625 107.339844 183.9375 107.363281 C 179.632812 107.488281 175.589844 108.050781 171.980469 109.035156 C 168.363281 110.007812 165.195312 111.410156 162.574219 112.992188 C 159.953125 114.574219 157.867188 116.308594 156.277344 117.867188 C 154.679688 119.429688 153.550781 120.800781 152.808594 121.75 C 152.625 121.988281 152.460938 122.203125 152.320312 122.382812 C 152.183594 122.570312 152.070312 122.726562 151.976562 122.851562 C 151.789062 123.105469 151.691406 123.234375 151.691406 123.234375 " fill-opacity="1" fill-rule="nonzero"/><g clip-path="url(#c80e346a23)"><path fill="#1a477e" d="M 148.253906 110.800781 C 148.175781 109.78125 148.03125 108.703125 147.746094 107.589844 C 147.457031 106.476562 147.023438 105.3125 146.28125 104.21875 C 145.910156 103.675781 145.460938 103.148438 144.925781 102.691406 C 144.394531 102.230469 143.777344 101.835938 143.105469 101.539062 C 142.441406 101.242188 141.726562 101.035156 141 100.921875 C 140.273438 100.804688 139.535156 100.777344 138.804688 100.804688 C 137.335938 100.863281 135.886719 101.148438 134.464844 101.558594 C 133.035156 101.96875 131.632812 102.511719 130.238281 103.132812 C 129.539062 103.441406 128.84375 103.773438 128.152344 104.121094 C 127.441406 104.484375 126.808594 104.820312 126.160156 105.105469 C 124.847656 105.699219 123.472656 106.1875 122.042969 106.515625 C 120.613281 106.839844 119.136719 107 117.632812 106.976562 C 116.128906 106.945312 114.597656 106.75 113.058594 106.382812 C 111.519531 106.015625 109.976562 105.488281 108.425781 104.847656 C 106.878906 104.207031 105.320312 103.460938 103.746094 102.65625 C 102.167969 101.847656 100.570312 100.980469 98.925781 100.105469 C 97.285156 99.226562 95.59375 98.339844 93.816406 97.511719 C 92.042969 96.679688 90.1875 95.902344 88.222656 95.269531 C 86.257812 94.636719 84.183594 94.140625 82.023438 93.929688 C 79.867188 93.710938 77.640625 93.765625 75.453125 94.128906 C 74.359375 94.308594 73.277344 94.5625 72.214844 94.878906 C 71.953125 94.960938 71.6875 95.042969 71.425781 95.128906 L 71.230469 95.195312 C 71.246094 95.191406 71.097656 95.242188 71.082031 95.25 L 70.996094 95.28125 L 70.644531 95.410156 C 70.523438 95.453125 70.414062 95.492188 70.285156 95.542969 L 69.867188 95.714844 L 69.449219 95.890625 C 69.3125 95.949219 69.1875 96.011719 69.054688 96.074219 C 66.976562 97.035156 65.011719 98.382812 63.351562 100.042969 C 61.683594 101.703125 60.328125 103.65625 59.304688 105.722656 C 58.792969 106.753906 58.359375 107.816406 57.992188 108.894531 C 57.628906 109.972656 57.335938 111.0625 57.101562 112.160156 C 56.632812 114.351562 56.375 116.558594 56.296875 118.75 C 56.253906 119.84375 56.253906 120.9375 56.285156 122.023438 C 56.316406 123.109375 56.386719 124.191406 56.480469 125.269531 C 56.875 129.570312 57.714844 133.777344 58.851562 137.859375 C 59.984375 141.941406 61.433594 145.894531 63.09375 149.710938 C 63.296875 150.191406 63.515625 150.664062 63.726562 151.136719 C 63.9375 151.597656 64.148438 152.058594 64.355469 152.515625 C 64.78125 153.433594 65.203125 154.351562 65.621094 155.265625 C 66.476562 157.082031 67.328125 158.890625 68.175781 160.6875 C 69.023438 162.480469 69.867188 164.257812 70.703125 166.023438 C 71.53125 167.785156 72.359375 169.527344 73.132812 171.25 C 73.519531 172.113281 73.890625 172.972656 74.25 173.828125 C 74.605469 174.683594 74.945312 175.535156 75.261719 176.390625 C 75.890625 178.09375 76.433594 179.796875 76.898438 181.519531 C 77.367188 183.242188 77.75 184.984375 78.09375 186.726562 C 78.179688 187.160156 78.261719 187.597656 78.34375 188.03125 C 78.410156 188.347656 78.425781 188.457031 78.5 188.769531 L 78.597656 189.183594 L 78.707031 189.566406 C 79 190.585938 79.421875 191.578125 79.976562 192.511719 C 80.253906 192.976562 80.566406 193.429688 80.914062 193.855469 C 81.261719 194.28125 81.648438 194.683594 82.070312 195.050781 C 82.910156 195.789062 83.910156 196.382812 85 196.746094 C 85.542969 196.929688 86.105469 197.054688 86.671875 197.117188 C 87.238281 197.175781 87.804688 197.171875 88.359375 197.113281 C 89.472656 197.003906 90.507812 196.652344 91.421875 196.1875 C 92.335938 195.714844 93.140625 195.132812 93.84375 194.496094 C 94.546875 193.859375 95.160156 193.171875 95.703125 192.464844 C 96.785156 191.046875 97.605469 189.550781 98.277344 188.058594 C 98.941406 186.5625 99.464844 185.070312 99.886719 183.597656 C 100.3125 182.125 100.652344 180.679688 100.917969 179.261719 C 101.039062 178.5625 101.160156 177.875 101.28125 177.195312 C 101.339844 176.863281 101.402344 176.539062 101.460938 176.210938 C 101.527344 175.886719 101.589844 175.5625 101.652344 175.242188 C 101.914062 173.957031 102.199219 172.71875 102.503906 171.527344 C 103.117188 169.148438 103.851562 166.96875 104.730469 165.066406 C 105.609375 163.167969 106.667969 161.550781 107.910156 160.402344 C 108.535156 159.828125 109.203125 159.382812 109.882812 159.070312 C 110.566406 158.75 111.257812 158.570312 111.917969 158.484375 C 112.582031 158.398438 113.210938 158.40625 113.785156 158.453125 C 114.359375 158.503906 114.882812 158.597656 115.347656 158.699219 C 116.273438 158.910156 116.976562 159.148438 117.445312 159.308594 C 117.914062 159.476562 118.152344 159.570312 118.152344 159.570312 C 118.152344 159.570312 117.925781 159.449219 117.476562 159.230469 C 117.027344 159.015625 116.359375 158.691406 115.4375 158.378906 C 114.515625 158.070312 113.328125 157.75 111.863281 157.785156 C 111.136719 157.8125 110.34375 157.929688 109.542969 158.214844 C 108.742188 158.496094 107.933594 158.933594 107.175781 159.511719 C 106.421875 160.09375 105.703125 160.800781 105.054688 161.613281 C 104.730469 162.015625 104.414062 162.445312 104.117188 162.894531 C 103.816406 163.34375 103.527344 163.8125 103.25 164.296875 C 102.691406 165.269531 102.183594 166.316406 101.710938 167.417969 C 101.234375 168.519531 100.796875 169.679688 100.382812 170.886719 C 99.96875 172.097656 99.585938 173.355469 99.230469 174.660156 C 99.140625 174.984375 99.050781 175.3125 98.964844 175.644531 C 98.878906 175.976562 98.792969 176.316406 98.703125 176.652344 C 98.542969 177.3125 98.375 177.980469 98.210938 178.65625 C 97.863281 179.980469 97.464844 181.324219 96.988281 182.660156 C 96.515625 183.996094 95.953125 185.328125 95.285156 186.609375 C 94.609375 187.886719 93.839844 189.128906 92.914062 190.210938 C 92.453125 190.75 91.953125 191.246094 91.425781 191.675781 C 90.894531 192.109375 90.328125 192.460938 89.75 192.71875 C 88.59375 193.226562 87.410156 193.3125 86.355469 192.890625 C 85.300781 192.484375 84.355469 191.570312 83.722656 190.363281 C 83.402344 189.761719 83.15625 189.09375 82.976562 188.390625 L 82.914062 188.125 L 82.867188 187.882812 C 82.835938 187.753906 82.785156 187.417969 82.765625 187.296875 C 82.695312 186.84375 82.625 186.386719 82.558594 185.929688 C 82.265625 184.105469 81.929688 182.246094 81.492188 180.371094 C 81.28125 179.429688 81.035156 178.492188 80.773438 177.550781 C 80.507812 176.609375 80.210938 175.671875 79.898438 174.742188 C 79.582031 173.808594 79.246094 172.886719 78.894531 171.964844 C 78.542969 171.050781 78.175781 170.136719 77.800781 169.230469 C 76.300781 165.609375 74.660156 162.050781 73.042969 158.433594 C 72.238281 156.628906 71.429688 154.8125 70.617188 152.984375 C 70.210938 152.074219 69.804688 151.160156 69.394531 150.242188 C 69.191406 149.78125 68.988281 149.324219 68.785156 148.863281 C 68.59375 148.414062 68.394531 147.964844 68.207031 147.511719 C 66.679688 143.894531 65.382812 140.152344 64.339844 136.339844 C 63.308594 132.527344 62.539062 128.640625 62.191406 124.753906 C 62.105469 123.78125 62.042969 122.8125 62.011719 121.847656 C 61.980469 120.878906 61.980469 119.917969 62.015625 118.960938 C 62.082031 117.046875 62.285156 115.164062 62.664062 113.351562 C 63.042969 111.539062 63.597656 109.796875 64.363281 108.207031 C 65.125 106.617188 66.105469 105.179688 67.289062 103.972656 C 68.472656 102.757812 69.867188 101.777344 71.402344 101.03125 C 71.5 100.984375 71.597656 100.933594 71.6875 100.890625 L 71.960938 100.769531 L 72.230469 100.648438 C 72.332031 100.605469 72.457031 100.558594 72.570312 100.515625 L 72.917969 100.378906 L 73.007812 100.34375 C 73.011719 100.339844 73.015625 100.339844 73.015625 100.339844 C 73.019531 100.339844 73.027344 100.335938 73.035156 100.332031 L 73.191406 100.277344 C 73.402344 100.199219 73.609375 100.132812 73.820312 100.0625 C 74.660156 99.789062 75.511719 99.574219 76.367188 99.414062 C 79.796875 98.761719 83.308594 99.125 86.730469 100.128906 C 88.441406 100.628906 90.128906 101.277344 91.800781 102 C 93.46875 102.726562 95.125 103.519531 96.78125 104.324219 C 98.433594 105.132812 100.089844 105.953125 101.761719 106.734375 C 103.4375 107.515625 105.136719 108.253906 106.878906 108.882812 C 108.617188 109.511719 110.398438 110.035156 112.210938 110.382812 C 112.738281 110.480469 113.265625 110.566406 113.792969 110.632812 C 112.714844 110.96875 111.59375 111.285156 110.449219 111.589844 C 109.851562 111.75 109.242188 111.894531 108.636719 112.046875 C 108.027344 112.191406 107.410156 112.335938 106.796875 112.472656 C 105.5625 112.742188 104.328125 113 103.105469 113.222656 C 101.882812 113.453125 100.671875 113.652344 99.5 113.835938 C 98.328125 114.015625 97.191406 114.175781 96.113281 114.3125 C 95.03125 114.453125 94.007812 114.566406 93.0625 114.667969 C 91.171875 114.863281 89.589844 114.984375 88.480469 115.058594 C 87.371094 115.128906 86.738281 115.152344 86.738281 115.152344 C 86.738281 115.152344 87.371094 115.175781 88.484375 115.1875 C 89.597656 115.199219 91.1875 115.195312 93.09375 115.140625 C 94.046875 115.113281 95.082031 115.074219 96.175781 115.015625 C 97.269531 114.960938 98.421875 114.882812 99.613281 114.792969 C 100.804688 114.695312 102.035156 114.585938 103.285156 114.445312 C 104.535156 114.3125 105.800781 114.148438 107.066406 113.96875 C 107.699219 113.875 108.332031 113.777344 108.964844 113.679688 C 109.59375 113.566406 110.21875 113.464844 110.839844 113.347656 C 112.082031 113.117188 113.300781 112.871094 114.476562 112.597656 C 115.066406 112.457031 115.644531 112.328125 116.207031 112.175781 C 116.769531 112.027344 117.324219 111.890625 117.855469 111.730469 C 118.925781 111.4375 119.929688 111.113281 120.855469 110.808594 C 121.316406 110.644531 121.757812 110.492188 122.175781 110.34375 C 122.59375 110.183594 122.988281 110.03125 123.359375 109.886719 C 123.445312 109.851562 123.53125 109.820312 123.613281 109.789062 C 125.035156 109.335938 126.378906 108.765625 127.625 108.101562 C 128.367188 107.71875 129.054688 107.296875 129.667969 106.9375 C 130.300781 106.570312 130.929688 106.21875 131.558594 105.890625 C 132.816406 105.234375 134.074219 104.667969 135.316406 104.210938 C 136.558594 103.757812 137.792969 103.433594 138.976562 103.300781 C 140.160156 103.171875 141.292969 103.253906 142.273438 103.601562 C 143.253906 103.945312 144.078125 104.570312 144.714844 105.371094 C 145.351562 106.167969 145.808594 107.113281 146.144531 108.074219 C 146.480469 109.035156 146.699219 110.015625 146.855469 110.964844 C 147.007812 111.917969 147.101562 112.84375 147.152344 113.722656 C 147.257812 115.492188 147.226562 117.085938 147.164062 118.476562 C 147.09375 119.863281 146.996094 121.042969 146.898438 122.003906 C 146.800781 122.960938 146.71875 123.695312 146.65625 124.1875 C 146.59375 124.683594 146.558594 124.9375 146.558594 124.9375 C 146.558594 124.9375 146.621094 124.6875 146.742188 124.203125 C 146.859375 123.71875 147.035156 123 147.230469 122.054688 C 147.429688 121.109375 147.65625 119.933594 147.859375 118.542969 C 148.066406 117.152344 148.25 115.539062 148.308594 113.707031 C 148.335938 112.792969 148.332031 111.824219 148.253906 110.800781 " fill-opacity="1" fill-rule="nonzero"/></g><g clip-path="url(#421fc8f535)"><path fill="#27aae1" d="M 331.503906 103.488281 C 316.113281 104.488281 315.304688 105.296875 314.308594 120.714844 C 313.3125 105.296875 312.503906 104.488281 297.113281 103.488281 C 312.503906 102.488281 313.3125 101.679688 314.308594 86.261719 C 315.304688 101.679688 316.113281 102.488281 331.503906 103.488281 " fill-opacity="1" fill-rule="nonzero"/></g><path fill="#27aae1" d="M 310.976562 123.234375 C 305.558594 123.585938 305.273438 123.871094 304.921875 129.304688 C 304.570312 123.871094 304.285156 123.585938 298.867188 123.234375 C 304.285156 122.882812 304.570312 122.597656 304.921875 117.167969 C 305.273438 122.597656 305.558594 122.882812 310.976562 123.234375 " fill-opacity="1" fill-rule="nonzero"/><path fill="#27aae1" d="M 282.53125 108.289062 C 278.242188 108.566406 278.015625 108.792969 277.738281 113.089844 C 277.460938 108.792969 277.234375 108.566406 272.949219 108.289062 C 277.234375 108.011719 277.460938 107.785156 277.738281 103.488281 C 278.015625 107.785156 278.242188 108.011719 282.53125 108.289062 " fill-opacity="1" fill-rule="nonzero"/><g fill="#1a477e" fill-opacity="1"><g transform="translate(149.01606, 155.552524)"><g><path d="M 9.375 -12.609375 C 9.957031 -12.398438 10.457031 -12.023438 10.875 -11.484375 C 11.289062 -10.953125 11.5 -10.34375 11.5 -9.65625 C 11.5 -8.957031 11.304688 -8.363281 10.921875 -7.875 C 10.535156 -7.382812 10.117188 -7.046875 9.671875 -6.859375 C 10.535156 -6.609375 11.160156 -6.191406 11.546875 -5.609375 C 11.929688 -5.035156 12.125 -4.414062 12.125 -3.75 C 12.125 -3 11.90625 -2.285156 11.46875 -1.609375 C 11.039062 -0.941406 10.460938 -0.492188 9.734375 -0.265625 C 9.398438 -0.160156 8.988281 -0.0859375 8.5 -0.046875 C 8.007812 -0.015625 7.410156 0 6.703125 0 L 1.3125 0 L 1.3125 -12.90625 L 6.703125 -12.90625 C 7.328125 -12.90625 7.84375 -12.882812 8.25 -12.84375 C 8.664062 -12.8125 9.039062 -12.734375 9.375 -12.609375 Z M 8.953125 -9.234375 C 8.953125 -9.578125 8.867188 -9.859375 8.703125 -10.078125 C 8.546875 -10.296875 8.34375 -10.460938 8.09375 -10.578125 C 7.863281 -10.671875 7.425781 -10.71875 6.78125 -10.71875 L 3.90625 -10.71875 L 3.90625 -7.765625 L 6.828125 -7.765625 C 8.242188 -7.765625 8.953125 -8.253906 8.953125 -9.234375 Z M 8.078125 -2.25 C 8.472656 -2.3125 8.796875 -2.476562 9.046875 -2.75 C 9.304688 -3.019531 9.4375 -3.375 9.4375 -3.8125 C 9.4375 -4.320312 9.3125 -4.703125 9.0625 -4.953125 C 8.8125 -5.210938 8.472656 -5.378906 8.046875 -5.453125 C 7.617188 -5.535156 7.0625 -5.578125 6.375 -5.578125 L 3.90625 -5.578125 L 3.90625 -2.1875 L 6.609375 -2.1875 C 7.234375 -2.1875 7.722656 -2.207031 8.078125 -2.25 Z M 8.078125 -2.25 "/></g></g></g><g fill="#1a477e" fill-opacity="1"><g transform="translate(162.020541, 155.552524)"><g><path d="M 10.875 -10.71875 L 3.90625 -10.71875 L 3.90625 -7.859375 L 10.390625 -7.859375 L 10.390625 -5.671875 L 3.90625 -5.671875 L 3.90625 -2.1875 L 11.109375 -2.1875 L 11.109375 0 L 1.3125 0 L 1.3125 -12.90625 L 10.875 -12.90625 Z M 10.875 -10.71875 "/></g></g></g><g fill="#1a477e" fill-opacity="1"><g transform="translate(174.034376, 155.552524)"><g><path d="M 9.96875 -12.484375 C 10.5 -12.253906 10.945312 -11.847656 11.3125 -11.265625 C 11.675781 -10.691406 11.859375 -10.03125 11.859375 -9.28125 C 11.859375 -8.320312 11.5625 -7.515625 10.96875 -6.859375 C 10.375 -6.203125 9.535156 -5.804688 8.453125 -5.671875 C 8.921875 -5.347656 9.273438 -5.082031 9.515625 -4.875 C 9.765625 -4.664062 10.035156 -4.367188 10.328125 -3.984375 C 10.617188 -3.609375 10.984375 -3.070312 11.421875 -2.375 L 12.90625 0 L 9.78125 0 L 7.6875 -3.140625 C 7.21875 -3.828125 6.851562 -4.316406 6.59375 -4.609375 C 6.34375 -4.910156 6.070312 -5.113281 5.78125 -5.21875 C 5.488281 -5.332031 5.082031 -5.390625 4.5625 -5.390625 L 3.90625 -5.390625 L 3.90625 0 L 1.3125 0 L 1.3125 -12.90625 L 6.953125 -12.90625 C 7.566406 -12.90625 8.125 -12.875 8.625 -12.8125 C 9.125 -12.757812 9.570312 -12.648438 9.96875 -12.484375 Z M 8.125 -7.578125 C 8.4375 -7.679688 8.6875 -7.863281 8.875 -8.125 C 9.070312 -8.382812 9.171875 -8.710938 9.171875 -9.109375 C 9.171875 -9.796875 8.875 -10.273438 8.28125 -10.546875 C 8.125 -10.609375 7.929688 -10.648438 7.703125 -10.671875 C 7.484375 -10.703125 7.097656 -10.71875 6.546875 -10.71875 L 3.90625 -10.71875 L 3.90625 -7.4375 L 6.203125 -7.4375 C 7.140625 -7.4375 7.78125 -7.484375 8.125 -7.578125 Z M 8.125 -7.578125 "/></g></g></g><g fill="#1a477e" fill-opacity="1"><g transform="translate(187.038858, 155.552524)"><g><path d="M 7.265625 -13.109375 C 8.734375 -13.109375 9.941406 -12.800781 10.890625 -12.1875 C 11.847656 -11.570312 12.46875 -10.617188 12.75 -9.328125 L 10.15625 -8.84375 C 9.96875 -9.519531 9.613281 -10.023438 9.09375 -10.359375 C 8.570312 -10.703125 7.96875 -10.875 7.28125 -10.875 C 6.582031 -10.875 5.96875 -10.742188 5.4375 -10.484375 C 4.90625 -10.222656 4.484375 -9.835938 4.171875 -9.328125 C 3.753906 -8.660156 3.546875 -7.75 3.546875 -6.59375 C 3.546875 -5.238281 3.851562 -4.132812 4.46875 -3.28125 C 5.082031 -2.4375 6.007812 -2.015625 7.25 -2.015625 C 7.769531 -2.015625 8.296875 -2.113281 8.828125 -2.3125 C 9.359375 -2.507812 9.84375 -2.773438 10.28125 -3.109375 L 10.28125 -4.734375 L 7.3125 -4.734375 L 7.3125 -6.921875 L 12.921875 -6.921875 L 12.921875 -1.78125 C 12.265625 -1.175781 11.429688 -0.691406 10.421875 -0.328125 C 9.410156 0.0351562 8.40625 0.21875 7.40625 0.21875 C 5.96875 0.21875 4.757812 -0.078125 3.78125 -0.671875 C 2.800781 -1.273438 2.066406 -2.082031 1.578125 -3.09375 C 1.097656 -4.113281 0.859375 -5.242188 0.859375 -6.484375 C 0.859375 -7.679688 1.09375 -8.78125 1.5625 -9.78125 C 2.03125 -10.789062 2.742188 -11.597656 3.703125 -12.203125 C 4.671875 -12.804688 5.859375 -13.109375 7.265625 -13.109375 Z M 7.265625 -13.109375 "/></g></g></g><g fill="#1a477e" fill-opacity="1"><g transform="translate(201.051999, 155.552524)"><g><path d="M 5.8125 -13.109375 C 7.25 -13.109375 8.421875 -12.789062 9.328125 -12.15625 C 10.234375 -11.519531 10.707031 -10.535156 10.75 -9.203125 L 8.140625 -9.09375 C 8.054688 -9.695312 7.835938 -10.160156 7.484375 -10.484375 C 7.128906 -10.804688 6.5625 -10.96875 5.78125 -10.96875 C 5.238281 -10.96875 4.738281 -10.867188 4.28125 -10.671875 C 3.832031 -10.484375 3.609375 -10.15625 3.609375 -9.6875 C 3.609375 -9.289062 3.8125 -8.972656 4.21875 -8.734375 C 4.625 -8.503906 5.347656 -8.269531 6.390625 -8.03125 C 7.367188 -7.800781 8.171875 -7.554688 8.796875 -7.296875 C 9.429688 -7.046875 9.972656 -6.632812 10.421875 -6.0625 C 10.878906 -5.488281 11.109375 -4.71875 11.109375 -3.75 C 11.109375 -3.257812 10.992188 -2.734375 10.765625 -2.171875 C 10.546875 -1.617188 10.175781 -1.144531 9.65625 -0.75 C 9.269531 -0.4375 8.757812 -0.195312 8.125 -0.03125 C 7.5 0.132812 6.769531 0.21875 5.9375 0.21875 C 4.332031 0.21875 3.097656 -0.144531 2.234375 -0.875 C 1.367188 -1.601562 0.84375 -2.710938 0.65625 -4.203125 L 3.171875 -4.4375 C 3.441406 -2.789062 4.378906 -1.96875 5.984375 -1.96875 C 6.828125 -1.96875 7.457031 -2.144531 7.875 -2.5 C 8.300781 -2.851562 8.515625 -3.269531 8.515625 -3.75 C 8.515625 -4.09375 8.410156 -4.363281 8.203125 -4.5625 C 7.992188 -4.769531 7.664062 -4.945312 7.21875 -5.09375 C 6.769531 -5.25 6.0625 -5.441406 5.09375 -5.671875 C 3.894531 -5.941406 2.929688 -6.382812 2.203125 -7 C 1.472656 -7.625 1.109375 -8.460938 1.109375 -9.515625 C 1.109375 -10.078125 1.253906 -10.628906 1.546875 -11.171875 C 1.835938 -11.722656 2.332031 -12.179688 3.03125 -12.546875 C 3.738281 -12.921875 4.664062 -13.109375 5.8125 -13.109375 Z M 5.8125 -13.109375 "/></g></g></g><g fill="#1a477e" fill-opacity="1"><g transform="translate(213.065834, 155.552524)"><g><path d="M 6.859375 -13.109375 C 8.179688 -13.109375 9.296875 -12.785156 10.203125 -12.140625 C 11.117188 -11.503906 11.726562 -10.566406 12.03125 -9.328125 L 9.453125 -8.71875 C 9.296875 -9.394531 8.976562 -9.921875 8.5 -10.296875 C 8.019531 -10.679688 7.429688 -10.875 6.734375 -10.875 C 5.722656 -10.875 4.9375 -10.515625 4.375 -9.796875 C 3.8125 -9.085938 3.53125 -8.003906 3.53125 -6.546875 C 3.53125 -5.191406 3.757812 -4.097656 4.21875 -3.265625 C 4.6875 -2.429688 5.515625 -2.015625 6.703125 -2.015625 C 7.460938 -2.015625 8.070312 -2.253906 8.53125 -2.734375 C 9 -3.210938 9.335938 -3.878906 9.546875 -4.734375 L 12.078125 -3.953125 C 11.722656 -2.546875 11.082031 -1.5 10.15625 -0.8125 C 9.238281 -0.125 8.09375 0.21875 6.71875 0.21875 C 5.550781 0.21875 4.523438 -0.0507812 3.640625 -0.59375 C 2.753906 -1.132812 2.066406 -1.894531 1.578125 -2.875 C 1.085938 -3.863281 0.84375 -5.019531 0.84375 -6.34375 C 0.84375 -7.519531 1.046875 -8.617188 1.453125 -9.640625 C 1.867188 -10.671875 2.523438 -11.503906 3.421875 -12.140625 C 4.328125 -12.785156 5.472656 -13.109375 6.859375 -13.109375 Z M 6.859375 -13.109375 "/></g></g></g><g fill="#1a477e" fill-opacity="1"><g transform="translate(226.070316, 155.552524)"><g><path d="M 3.90625 -7.8125 L 9 -7.8125 L 9 -12.90625 L 11.609375 -12.90625 L 11.609375 0 L 9 0 L 9 -5.640625 L 3.90625 -5.640625 L 3.90625 0 L 1.3125 0 L 1.3125 -12.90625 L 3.90625 -12.90625 Z M 3.90625 -7.8125 "/></g></g></g><g fill="#1a477e" fill-opacity="1"><g transform="translate(239.074797, 155.552524)"><g><path d="M 10.875 -10.71875 L 3.90625 -10.71875 L 3.90625 -7.859375 L 10.390625 -7.859375 L 10.390625 -5.671875 L 3.90625 -5.671875 L 3.90625 -2.1875 L 11.109375 -2.1875 L 11.109375 0 L 1.3125 0 L 1.3125 -12.90625 L 10.875 -12.90625 Z M 10.875 -10.71875 "/></g></g></g><g fill="#1a477e" fill-opacity="1"><g transform="translate(251.088632, 155.552524)"><g><path d="M 9.140625 -4.28125 L 9.140625 -12.90625 L 11.546875 -12.90625 L 11.546875 0 L 8.9375 0 L 3.75 -8.40625 L 3.75 0 L 1.328125 0 L 1.328125 -12.90625 L 3.859375 -12.90625 Z M 9.140625 -4.28125 "/></g></g></g><g fill="#1a477e" fill-opacity="1"><g transform="translate(264.093114, 155.552524)"><g><path d="M 3.90625 -7.8125 L 9 -7.8125 L 9 -12.90625 L 11.609375 -12.90625 L 11.609375 0 L 9 0 L 9 -5.640625 L 3.90625 -5.640625 L 3.90625 0 L 1.3125 0 L 1.3125 -12.90625 L 3.90625 -12.90625 Z M 3.90625 -7.8125 "/></g></g></g><g fill="#1a477e" fill-opacity="1"><g transform="translate(277.097596, 155.552524)"><g><path d="M 7.015625 -13.109375 C 8.367188 -13.109375 9.515625 -12.820312 10.453125 -12.25 C 11.390625 -11.675781 12.09375 -10.882812 12.5625 -9.875 C 13.03125 -8.863281 13.265625 -7.71875 13.265625 -6.4375 C 13.265625 -5.0625 13.015625 -3.875 12.515625 -2.875 C 12.015625 -1.882812 11.296875 -1.117188 10.359375 -0.578125 C 9.421875 -0.046875 8.316406 0.21875 7.046875 0.21875 C 5.710938 0.21875 4.570312 -0.0546875 3.625 -0.609375 C 2.6875 -1.160156 1.976562 -1.929688 1.5 -2.921875 C 1.019531 -3.910156 0.78125 -5.0625 0.78125 -6.375 C 0.78125 -7.726562 1.019531 -8.910156 1.5 -9.921875 C 1.976562 -10.941406 2.679688 -11.726562 3.609375 -12.28125 C 4.546875 -12.832031 5.679688 -13.109375 7.015625 -13.109375 Z M 3.453125 -6.453125 C 3.453125 -5.441406 3.613281 -4.601562 3.9375 -3.9375 C 4.269531 -3.28125 4.703125 -2.796875 5.234375 -2.484375 C 5.773438 -2.171875 6.375 -2.015625 7.03125 -2.015625 C 7.625 -2.015625 8.1875 -2.148438 8.71875 -2.421875 C 9.25 -2.703125 9.691406 -3.175781 10.046875 -3.84375 C 10.398438 -4.507812 10.578125 -5.390625 10.578125 -6.484375 C 10.578125 -7.765625 10.289062 -8.816406 9.71875 -9.640625 C 9.15625 -10.460938 8.253906 -10.875 7.015625 -10.875 C 5.773438 -10.875 4.867188 -10.457031 4.296875 -9.625 C 3.734375 -8.800781 3.453125 -7.742188 3.453125 -6.453125 Z M 3.453125 -6.453125 "/></g></g></g><g fill="#1a477e" fill-opacity="1"><g transform="translate(291.110736, 155.552524)"><g><path d="M 10.875 -10.71875 L 3.90625 -10.71875 L 3.90625 -7.859375 L 10.390625 -7.859375 L 10.390625 -5.671875 L 3.90625 -5.671875 L 3.90625 -2.1875 L 11.109375 -2.1875 L 11.109375 0 L 1.3125 0 L 1.3125 -12.90625 L 10.875 -12.90625 Z M 10.875 -10.71875 "/></g></g></g><g fill="#1a477e" fill-opacity="1"><g transform="translate(303.124572, 155.552524)"><g><path d="M 3.953125 -7.171875 L 9.21875 -12.90625 L 12.71875 -12.90625 L 7.875 -7.875 L 12.984375 0 L 9.625 0 L 6.078125 -6.046875 L 3.953125 -3.890625 L 3.953125 0 L 1.34375 0 L 1.34375 -12.90625 L 3.953125 -12.90625 Z M 3.953125 -7.171875 "/></g></g></g><g fill="#27aae1" fill-opacity="1"><g transform="translate(149.01606, 180.302523)"><g><path d="M 9.4375 -12.234375 C 10.3125 -11.722656 10.972656 -10.972656 11.421875 -9.984375 C 11.878906 -9.003906 12.109375 -7.859375 12.109375 -6.546875 C 12.109375 -5.453125 11.945312 -4.425781 11.625 -3.46875 C 11.300781 -2.519531 10.804688 -1.769531 10.140625 -1.21875 C 9.648438 -0.8125 9.101562 -0.503906 8.5 -0.296875 C 7.90625 -0.0976562 7.15625 0 6.25 0 L 1.4375 0 L 1.4375 -12.90625 L 6.125 -12.90625 C 6.882812 -12.90625 7.507812 -12.859375 8 -12.765625 C 8.5 -12.671875 8.976562 -12.492188 9.4375 -12.234375 Z M 10.34375 -6.5625 C 10.34375 -7.863281 10.132812 -8.875 9.71875 -9.59375 C 9.3125 -10.3125 8.828125 -10.789062 8.265625 -11.03125 C 7.703125 -11.269531 6.992188 -11.390625 6.140625 -11.390625 L 3.15625 -11.390625 L 3.15625 -1.515625 L 5.984375 -1.515625 C 6.828125 -1.515625 7.53125 -1.613281 8.09375 -1.8125 C 8.664062 -2.007812 9.179688 -2.476562 9.640625 -3.21875 C 10.109375 -3.96875 10.34375 -5.082031 10.34375 -6.5625 Z M 10.34375 -6.5625 "/></g></g></g><g fill="#27aae1" fill-opacity="1"><g transform="translate(162.020541, 180.302523)"><g><path d="M 10.75 -11.390625 L 3.140625 -11.390625 L 3.140625 -7.421875 L 10.265625 -7.421875 L 10.265625 -5.90625 L 3.140625 -5.90625 L 3.140625 -1.515625 L 11.046875 -1.515625 L 11.046875 0 L 1.421875 0 L 1.421875 -12.90625 L 10.75 -12.90625 Z M 10.75 -11.390625 "/></g></g></g><g fill="#27aae1" fill-opacity="1"><g transform="translate(174.034376, 180.302523)"><g><path d="M 9.9375 -2.78125 L 9.9375 -12.90625 L 11.578125 -12.90625 L 11.578125 0 L 9.84375 0 L 3.0625 -10.125 L 3.0625 0 L 1.421875 0 L 1.421875 -12.90625 L 3.171875 -12.90625 Z M 9.9375 -2.78125 "/></g></g></g><g fill="#27aae1" fill-opacity="1"><g transform="translate(187.038858, 180.302523)"><g><path d="M 10.625 -11.390625 L 6.359375 -11.390625 L 6.359375 0 L 4.640625 0 L 4.640625 -11.390625 L 0.390625 -11.390625 L 0.390625 -12.90625 L 10.625 -12.90625 Z M 10.625 -11.390625 "/></g></g></g><g fill="#27aae1" fill-opacity="1"><g transform="translate(198.044034, 180.302523)"><g><path d="M 12.046875 0 L 10.109375 0 L 8.59375 -3.921875 L 3.203125 -3.921875 L 1.796875 0 L -0.015625 0 L 4.9375 -12.90625 L 6.78125 -12.90625 Z M 5.109375 -9.078125 L 3.71875 -5.296875 L 8.078125 -5.296875 L 6.484375 -9.546875 C 6.296875 -10.054688 6.070312 -10.722656 5.8125 -11.546875 C 5.8125 -11.484375 5.738281 -11.175781 5.59375 -10.625 C 5.457031 -10.082031 5.296875 -9.566406 5.109375 -9.078125 Z M 5.109375 -9.078125 "/></g></g></g><g fill="#27aae1" fill-opacity="1"><g transform="translate(210.057869, 180.302523)"><g><path d="M 3.0625 -1.515625 L 9.421875 -1.515625 L 9.421875 0 L 1.34375 0 L 1.34375 -12.90625 L 3.0625 -12.90625 Z M 3.0625 -1.515625 "/></g></g></g><g fill="#27aae1" fill-opacity="1"><g transform="translate(220.072398, 180.302523)"><g/></g></g><g fill="#27aae1" fill-opacity="1"><g transform="translate(225.079669, 180.302523)"><g><path d="M 9.1875 -12.125 C 9.664062 -11.757812 10 -11.351562 10.1875 -10.90625 C 10.375 -10.457031 10.46875 -10.054688 10.46875 -9.703125 C 10.46875 -8.410156 9.859375 -7.460938 8.640625 -6.859375 C 9.472656 -6.609375 10.082031 -6.207031 10.46875 -5.65625 C 10.863281 -5.101562 11.0625 -4.441406 11.0625 -3.671875 C 11.0625 -3.085938 10.910156 -2.488281 10.609375 -1.875 C 10.304688 -1.269531 9.785156 -0.796875 9.046875 -0.453125 C 8.410156 -0.148438 7.523438 0 6.390625 0 L 1.328125 0 L 1.328125 -12.90625 L 6.28125 -12.90625 C 7.007812 -12.90625 7.585938 -12.835938 8.015625 -12.703125 C 8.453125 -12.578125 8.84375 -12.382812 9.1875 -12.125 Z M 8.78125 -9.40625 C 8.78125 -10.1875 8.53125 -10.710938 8.03125 -10.984375 C 7.53125 -11.253906 6.78125 -11.390625 5.78125 -11.390625 L 3.046875 -11.390625 L 3.046875 -7.46875 L 5.9375 -7.46875 C 6.914062 -7.46875 7.632812 -7.617188 8.09375 -7.921875 C 8.550781 -8.234375 8.78125 -8.726562 8.78125 -9.40625 Z M 8.15625 -1.8125 C 8.570312 -2.019531 8.863281 -2.296875 9.03125 -2.640625 C 9.207031 -2.992188 9.296875 -3.359375 9.296875 -3.734375 C 9.296875 -4.234375 9.171875 -4.65625 8.921875 -5 C 8.671875 -5.351562 8.3125 -5.609375 7.84375 -5.765625 C 7.457031 -5.898438 6.894531 -5.96875 6.15625 -5.96875 L 3.046875 -5.96875 L 3.046875 -1.515625 L 6.484375 -1.515625 C 6.878906 -1.515625 7.203125 -1.535156 7.453125 -1.578125 C 7.710938 -1.628906 7.945312 -1.707031 8.15625 -1.8125 Z M 8.15625 -1.8125 "/></g></g></g><g fill="#27aae1" fill-opacity="1"><g transform="translate(237.093504, 180.302523)"><g><path d="M 3.40625 0 L 1.609375 0 L 1.609375 -1.796875 L 3.40625 -1.796875 Z M 3.40625 0 "/></g></g></g><g fill="#27aae1" fill-opacity="1"><g transform="translate(242.100775, 180.302523)"><g><path d="M 5.34375 -3.421875 C 5.601562 -2.753906 5.816406 -2.085938 5.984375 -1.421875 C 6.203125 -2.148438 6.4375 -2.851562 6.6875 -3.53125 L 10.15625 -12.90625 L 11.90625 -12.90625 L 6.859375 0 L 5.09375 0 L 0.109375 -12.90625 L 1.96875 -12.90625 Z M 5.34375 -3.421875 "/></g></g></g></svg>