<svg xmlns="http://www.w3.org/2000/svg" xmlns:xlink="http://www.w3.org/1999/xlink" width="500" zoomAndPan="magnify" viewBox="0 0 375 374.999991" height="500" preserveAspectRatio="xMidYMid meet" version="1.0"><defs><g/><clipPath id="7364196752"><path d="M 37.5 104.121094 L 142.855469 104.121094 L 142.855469 222.082031 L 37.5 222.082031 Z M 37.5 104.121094 " clip-rule="nonzero"/></clipPath><clipPath id="17cefc092f"><path d="M 312.820312 95.558594 L 352.148438 95.558594 L 352.148438 135 L 312.820312 135 Z M 312.820312 95.558594 " clip-rule="nonzero"/></clipPath><clipPath id="233a7e186d"><rect x="0" width="189" y="0" height="50"/></clipPath></defs><rect x="-37.5" width="450" fill="#ffffff" y="-37.499999" height="449.999989" fill-opacity="1"/><rect x="-37.5" width="450" fill="#ffffff" y="-37.499999" height="449.999989" fill-opacity="1"/><path fill="#1a477e" d="M 98.242188 180.660156 C 98.242188 180.660156 98.289062 180.617188 98.390625 180.539062 C 98.492188 180.460938 98.644531 180.347656 98.863281 180.210938 C 99.078125 180.078125 99.355469 179.921875 99.699219 179.761719 C 100.046875 179.605469 100.460938 179.433594 100.964844 179.3125 C 101.460938 179.191406 102.042969 179.09375 102.707031 179.109375 C 103.367188 179.125 104.109375 179.238281 104.867188 179.539062 C 105.242188 179.6875 105.625 179.875 105.996094 180.101562 C 106.367188 180.332031 106.726562 180.605469 107.074219 180.910156 C 107.765625 181.519531 108.394531 182.265625 108.9375 183.105469 C 109.003906 183.207031 109.070312 183.308594 109.136719 183.410156 C 109.203125 183.515625 109.265625 183.625 109.332031 183.730469 C 109.460938 183.941406 109.585938 184.15625 109.710938 184.375 C 109.953125 184.8125 110.1875 185.265625 110.417969 185.726562 C 110.644531 186.191406 110.867188 186.667969 111.085938 187.15625 C 111.300781 187.644531 111.511719 188.144531 111.71875 188.65625 C 111.925781 189.164062 112.132812 189.6875 112.339844 190.214844 C 112.535156 190.746094 112.734375 191.285156 112.9375 191.835938 C 113.136719 192.382812 113.339844 192.9375 113.542969 193.503906 C 113.742188 194.066406 113.945312 194.636719 114.148438 195.21875 C 114.355469 195.789062 114.570312 196.371094 114.785156 196.960938 C 114.992188 197.550781 115.210938 198.140625 115.441406 198.730469 C 115.667969 199.320312 115.910156 199.910156 116.15625 200.496094 C 116.402344 201.085938 116.660156 201.667969 116.933594 202.238281 C 117.210938 202.808594 117.503906 203.363281 117.816406 203.890625 C 118.125 204.421875 118.453125 204.925781 118.804688 205.375 C 119.152344 205.820312 119.523438 206.210938 119.898438 206.507812 C 120.269531 206.8125 120.632812 207.027344 121.003906 207.164062 C 121.378906 207.296875 121.773438 207.355469 122.238281 207.335938 C 122.46875 207.332031 122.714844 207.308594 122.976562 207.257812 C 123.042969 207.246094 123.105469 207.234375 123.171875 207.21875 L 123.273438 207.195312 C 123.300781 207.1875 123.203125 207.214844 123.277344 207.195312 L 123.347656 207.171875 C 123.382812 207.164062 123.394531 207.160156 123.378906 207.164062 C 123.375 207.164062 123.371094 207.164062 123.367188 207.167969 C 123.351562 207.171875 123.375 207.164062 123.382812 207.160156 C 123.402344 207.152344 123.425781 207.144531 123.445312 207.132812 C 123.53125 207.089844 123.632812 207.019531 123.757812 206.902344 C 123.878906 206.785156 124.019531 206.617188 124.160156 206.40625 C 124.445312 205.988281 124.722656 205.410156 124.964844 204.769531 C 125.449219 203.476562 125.808594 201.945312 126.117188 200.359375 C 126.421875 198.769531 126.675781 197.101562 126.910156 195.394531 C 127.84375 188.546875 128.613281 181.097656 130.257812 173.472656 C 131.078125 169.65625 132.109375 165.792969 133.511719 161.96875 C 134.910156 158.152344 136.671875 154.367188 138.941406 150.8125 C 141.207031 147.261719 143.988281 143.949219 147.273438 141.167969 C 150.542969 138.378906 154.285156 136.132812 158.230469 134.488281 C 162.179688 132.839844 166.320312 131.769531 170.464844 131.152344 C 174.613281 130.53125 178.785156 130.335938 182.859375 130.425781 C 191.050781 130.589844 198.976562 131.8125 206.503906 133.359375 C 210.269531 134.144531 213.9375 135.019531 217.511719 135.917969 C 221.085938 136.816406 224.5625 137.734375 227.941406 138.644531 C 231.320312 139.546875 234.601562 140.425781 237.78125 141.242188 C 240.960938 142.066406 244.035156 142.832031 247 143.515625 C 249.964844 144.191406 252.8125 144.804688 255.535156 145.316406 C 258.257812 145.828125 260.851562 146.25 263.296875 146.59375 C 268.1875 147.273438 272.488281 147.605469 276.039062 147.726562 C 279.589844 147.859375 282.382812 147.761719 284.285156 147.683594 C 284.761719 147.660156 285.183594 147.640625 285.546875 147.625 C 285.910156 147.597656 286.214844 147.578125 286.460938 147.5625 C 286.953125 147.53125 287.207031 147.515625 287.207031 147.515625 C 287.207031 147.515625 286.953125 147.546875 286.464844 147.605469 C 286.21875 147.636719 285.917969 147.675781 285.554688 147.71875 C 285.191406 147.757812 284.773438 147.800781 284.300781 147.851562 C 283.824219 147.90625 283.292969 147.953125 282.707031 148 C 282.121094 148.054688 281.484375 148.09375 280.792969 148.140625 C 280.101562 148.191406 279.355469 148.214844 278.5625 148.257812 C 277.769531 148.277344 276.925781 148.316406 276.03125 148.324219 C 274.246094 148.351562 272.269531 148.347656 270.117188 148.261719 C 267.960938 148.179688 265.636719 148.03125 263.15625 147.796875 C 258.195312 147.328125 252.625 146.527344 246.609375 145.375 C 243.597656 144.800781 240.476562 144.152344 237.257812 143.445312 C 234.035156 142.734375 230.71875 141.964844 227.3125 141.175781 C 220.496094 139.609375 213.335938 137.917969 205.882812 136.59375 C 202.15625 135.929688 198.359375 135.355469 194.507812 134.953125 C 190.660156 134.550781 186.75 134.320312 182.835938 134.324219 C 178.90625 134.320312 174.984375 134.59375 171.125 135.257812 C 167.273438 135.925781 163.492188 136.96875 159.957031 138.523438 C 156.421875 140.074219 153.140625 142.128906 150.285156 144.652344 C 147.425781 147.171875 144.988281 150.128906 142.992188 153.359375 C 140.992188 156.589844 139.421875 160.074219 138.171875 163.640625 C 136.925781 167.210938 135.980469 170.867188 135.234375 174.515625 C 134.488281 178.167969 133.9375 181.816406 133.46875 185.421875 C 132.992188 189.027344 132.617188 192.589844 132.160156 196.101562 C 131.925781 197.859375 131.675781 199.605469 131.351562 201.351562 C 131.019531 203.097656 130.640625 204.84375 129.984375 206.640625 C 129.648438 207.539062 129.242188 208.457031 128.632812 209.382812 C 128.324219 209.847656 127.964844 210.3125 127.511719 210.753906 C 127.0625 211.195312 126.519531 211.609375 125.898438 211.929688 C 125.742188 212.007812 125.582031 212.082031 125.421875 212.148438 C 125.335938 212.183594 125.269531 212.210938 125.160156 212.25 L 125.007812 212.300781 L 124.898438 212.335938 L 124.6875 212.398438 L 124.503906 212.449219 C 124.378906 212.484375 124.25 212.511719 124.125 212.542969 C 123.621094 212.664062 123.089844 212.746094 122.542969 212.789062 C 121.453125 212.859375 120.289062 212.722656 119.21875 212.355469 C 118.148438 211.992188 117.195312 211.425781 116.410156 210.785156 C 115.625 210.136719 114.992188 209.429688 114.453125 208.722656 C 113.914062 208.007812 113.464844 207.292969 113.066406 206.585938 C 112.675781 205.871094 112.34375 205.164062 112.042969 204.46875 C 111.742188 203.773438 111.472656 203.089844 111.226562 202.414062 C 110.984375 201.738281 110.769531 201.070312 110.566406 200.417969 C 110.367188 199.761719 110.175781 199.121094 110 198.488281 C 109.824219 197.855469 109.667969 197.234375 109.511719 196.625 C 109.359375 196.019531 109.214844 195.421875 109.066406 194.835938 C 108.929688 194.25 108.796875 193.675781 108.664062 193.113281 C 108.402344 192 108.152344 190.925781 107.90625 189.894531 C 107.785156 189.386719 107.65625 188.890625 107.53125 188.410156 C 107.40625 187.925781 107.28125 187.460938 107.148438 187.007812 C 107.019531 186.558594 106.882812 186.121094 106.746094 185.703125 C 106.675781 185.496094 106.605469 185.289062 106.535156 185.089844 C 106.5 184.992188 106.464844 184.894531 106.429688 184.800781 C 106.390625 184.703125 106.351562 184.605469 106.316406 184.511719 C 106.019531 183.78125 105.679688 183.128906 105.289062 182.585938 C 104.894531 182.039062 104.457031 181.589844 103.980469 181.25 C 103.507812 180.914062 103.003906 180.675781 102.503906 180.523438 C 102.007812 180.375 101.515625 180.300781 101.066406 180.28125 C 100.167969 180.234375 99.441406 180.355469 98.964844 180.464844 C 98.484375 180.570312 98.242188 180.660156 98.242188 180.660156 " fill-opacity="1" fill-rule="nonzero"/><path fill="#5bbceb" d="M 146.59375 137.742188 C 146.59375 137.742188 146.679688 137.578125 146.84375 137.261719 C 146.929688 137.101562 147.03125 136.90625 147.15625 136.671875 C 147.28125 136.4375 147.433594 136.175781 147.609375 135.871094 C 147.777344 135.566406 147.980469 135.238281 148.207031 134.875 C 148.425781 134.503906 148.679688 134.113281 148.960938 133.691406 C 149.230469 133.261719 149.554688 132.824219 149.886719 132.347656 C 150.058594 132.113281 150.242188 131.875 150.429688 131.628906 C 150.519531 131.503906 150.617188 131.378906 150.710938 131.253906 C 150.8125 131.128906 150.914062 131.003906 151.015625 130.875 C 151.828125 129.847656 152.800781 128.765625 153.933594 127.648438 C 155.0625 126.53125 156.371094 125.402344 157.851562 124.292969 C 159.328125 123.183594 160.996094 122.125 162.832031 121.140625 C 164.664062 120.15625 166.675781 119.273438 168.828125 118.5 C 170.980469 117.730469 173.28125 117.097656 175.6875 116.589844 C 178.097656 116.082031 180.617188 115.730469 183.210938 115.5 C 184.511719 115.386719 185.828125 115.304688 187.160156 115.265625 L 187.664062 115.246094 L 188.179688 115.238281 C 188.507812 115.230469 188.835938 115.226562 189.164062 115.222656 C 189.8125 115.203125 190.503906 115.214844 191.191406 115.21875 C 193.929688 115.234375 196.691406 115.394531 199.503906 115.636719 C 202.3125 115.875 205.148438 116.238281 208.003906 116.671875 C 208.71875 116.777344 209.433594 116.894531 210.148438 117.015625 C 210.867188 117.128906 211.582031 117.257812 212.300781 117.382812 C 213.734375 117.636719 215.167969 117.917969 216.605469 118.210938 C 218.042969 118.5 219.480469 118.804688 220.921875 119.117188 C 221.640625 119.277344 222.359375 119.4375 223.078125 119.597656 C 223.796875 119.761719 224.515625 119.929688 225.234375 120.097656 C 228.109375 120.777344 230.980469 121.480469 233.84375 122.183594 C 239.566406 123.625 245.257812 125.058594 250.859375 126.351562 C 252.261719 126.671875 253.660156 126.980469 255.050781 127.273438 C 256.441406 127.578125 257.824219 127.863281 259.203125 128.136719 C 261.957031 128.679688 264.683594 129.148438 267.371094 129.5625 C 272.746094 130.375 277.972656 130.871094 282.941406 131.011719 C 285.421875 131.089844 287.84375 131.082031 290.179688 130.984375 C 292.515625 130.890625 294.773438 130.726562 296.933594 130.488281 C 299.089844 130.25 301.160156 129.964844 303.117188 129.613281 C 304.097656 129.457031 305.042969 129.25 305.96875 129.070312 C 306.433594 128.984375 306.882812 128.871094 307.332031 128.773438 C 307.777344 128.675781 308.21875 128.578125 308.652344 128.480469 C 312.109375 127.65625 315.089844 126.761719 317.527344 125.9375 C 318.136719 125.742188 318.707031 125.527344 319.25 125.339844 C 319.789062 125.152344 320.300781 124.980469 320.765625 124.796875 C 321.234375 124.625 321.667969 124.460938 322.066406 124.3125 C 322.265625 124.234375 322.453125 124.164062 322.632812 124.097656 C 322.8125 124.023438 322.980469 123.957031 323.140625 123.890625 C 324.429688 123.378906 325.113281 123.105469 325.113281 123.105469 C 325.113281 123.105469 324.476562 123.476562 323.277344 124.175781 C 322.070312 124.855469 320.285156 125.847656 317.941406 126.96875 C 317.351562 127.242188 316.730469 127.53125 316.078125 127.832031 C 315.417969 128.117188 314.726562 128.414062 314.003906 128.722656 C 313.285156 129.027344 312.515625 129.316406 311.726562 129.628906 C 310.933594 129.929688 310.101562 130.21875 309.246094 130.527344 C 305.804688 131.710938 301.828125 132.816406 297.402344 133.65625 C 296.847656 133.753906 296.289062 133.855469 295.722656 133.957031 C 295.15625 134.050781 294.582031 134.128906 294 134.21875 C 293.710938 134.261719 293.421875 134.308594 293.128906 134.347656 C 292.835938 134.386719 292.539062 134.421875 292.242188 134.460938 C 291.652344 134.53125 291.054688 134.617188 290.449219 134.671875 C 288.03125 134.941406 285.519531 135.089844 282.9375 135.167969 C 277.769531 135.308594 272.316406 135.058594 266.734375 134.417969 C 263.941406 134.109375 261.117188 133.695312 258.277344 133.21875 C 256.855469 132.976562 255.429688 132.722656 254 132.453125 C 252.574219 132.175781 251.144531 131.886719 249.710938 131.582031 C 243.980469 130.386719 238.230469 128.953125 232.511719 127.542969 C 229.652344 126.820312 226.804688 126.105469 223.964844 125.421875 C 222.546875 125.082031 221.132812 124.742188 219.722656 124.40625 C 218.308594 124.074219 216.902344 123.75 215.5 123.441406 C 214.097656 123.132812 212.703125 122.839844 211.3125 122.558594 C 210.617188 122.417969 209.921875 122.273438 209.230469 122.144531 C 208.539062 122.011719 207.847656 121.875 207.15625 121.753906 C 204.402344 121.257812 201.675781 120.839844 198.984375 120.492188 C 198.652344 120.449219 198.316406 120.410156 197.980469 120.367188 C 197.644531 120.328125 197.3125 120.292969 196.976562 120.253906 C 196.644531 120.21875 196.3125 120.183594 195.980469 120.148438 C 195.644531 120.117188 195.316406 120.085938 194.984375 120.054688 C 194.652344 120.027344 194.324219 119.996094 193.992188 119.96875 C 193.664062 119.9375 193.335938 119.921875 193.007812 119.894531 C 192.351562 119.84375 191.699219 119.789062 191.0625 119.761719 C 190.417969 119.726562 189.789062 119.683594 189.121094 119.667969 C 188.792969 119.65625 188.464844 119.644531 188.140625 119.632812 L 187.894531 119.625 L 187.773438 119.621094 C 187.746094 119.621094 187.777344 119.621094 187.734375 119.621094 L 187.675781 119.617188 L 187.203125 119.613281 C 185.9375 119.59375 184.6875 119.605469 183.457031 119.632812 C 178.535156 119.773438 173.910156 120.414062 169.785156 121.539062 C 165.652344 122.648438 162.027344 124.25 159.035156 126.054688 C 156.035156 127.859375 153.652344 129.835938 151.832031 131.617188 C 150.007812 133.398438 148.71875 134.960938 147.871094 136.046875 C 147.660156 136.320312 147.472656 136.5625 147.3125 136.769531 C 147.15625 136.984375 147.023438 137.160156 146.917969 137.304688 C 146.703125 137.59375 146.59375 137.742188 146.59375 137.742188 " fill-opacity="1" fill-rule="nonzero"/><g clip-path="url(#7364196752)"><path fill="#1a477e" d="M 142.664062 123.554688 C 142.570312 122.390625 142.40625 121.160156 142.078125 119.890625 C 141.75 118.621094 141.253906 117.292969 140.40625 116.046875 C 139.984375 115.421875 139.46875 114.824219 138.859375 114.300781 C 138.25 113.773438 137.542969 113.324219 136.777344 112.988281 C 136.015625 112.648438 135.199219 112.414062 134.367188 112.285156 C 133.539062 112.152344 132.695312 112.117188 131.859375 112.148438 C 130.183594 112.214844 128.523438 112.542969 126.894531 113.011719 C 125.265625 113.476562 123.660156 114.097656 122.066406 114.804688 C 121.265625 115.160156 120.472656 115.539062 119.679688 115.933594 C 118.867188 116.347656 118.144531 116.730469 117.40625 117.058594 C 115.902344 117.734375 114.332031 118.292969 112.699219 118.664062 C 111.066406 119.03125 109.375 119.21875 107.65625 119.1875 C 105.933594 119.15625 104.1875 118.933594 102.429688 118.511719 C 100.667969 118.09375 98.902344 117.492188 97.132812 116.761719 C 95.363281 116.03125 93.582031 115.179688 91.78125 114.261719 C 89.976562 113.339844 88.152344 112.351562 86.269531 111.351562 C 84.394531 110.347656 82.460938 109.335938 80.429688 108.390625 C 78.402344 107.445312 76.28125 106.558594 74.035156 105.832031 C 71.789062 105.109375 69.417969 104.546875 66.949219 104.304688 C 64.484375 104.054688 61.9375 104.117188 59.4375 104.53125 C 58.1875 104.738281 56.949219 105.027344 55.738281 105.386719 C 55.433594 105.480469 55.132812 105.574219 54.835938 105.675781 L 54.609375 105.75 C 54.625 105.742188 54.460938 105.804688 54.441406 105.808594 L 54.339844 105.847656 L 53.9375 105.992188 C 53.800781 106.046875 53.679688 106.085938 53.53125 106.144531 L 52.570312 106.542969 C 52.417969 106.609375 52.273438 106.679688 52.121094 106.75 C 49.746094 107.851562 47.5 109.386719 45.601562 111.28125 C 43.695312 113.171875 42.148438 115.402344 40.976562 117.761719 C 40.390625 118.9375 39.894531 120.152344 39.472656 121.378906 C 39.058594 122.609375 38.726562 123.855469 38.457031 125.105469 C 37.921875 127.605469 37.625 130.125 37.539062 132.621094 C 37.492188 133.871094 37.488281 135.117188 37.523438 136.359375 C 37.5625 137.597656 37.640625 138.832031 37.746094 140.0625 C 38.199219 144.972656 39.15625 149.769531 40.457031 154.425781 C 41.753906 159.082031 43.410156 163.59375 45.308594 167.949219 C 45.542969 168.496094 45.789062 169.035156 46.03125 169.574219 C 46.273438 170.101562 46.511719 170.625 46.753906 171.148438 C 47.234375 172.195312 47.71875 173.242188 48.199219 174.285156 C 49.175781 176.359375 50.148438 178.421875 51.117188 180.472656 C 52.085938 182.515625 53.050781 184.542969 54.007812 186.558594 C 54.953125 188.570312 55.902344 190.558594 56.785156 192.523438 C 57.226562 193.507812 57.652344 194.488281 58.0625 195.464844 C 58.464844 196.441406 58.855469 197.414062 59.21875 198.386719 C 59.9375 200.332031 60.558594 202.277344 61.089844 204.242188 C 61.625 206.207031 62.0625 208.191406 62.457031 210.179688 C 62.554688 210.675781 62.648438 211.171875 62.742188 211.667969 C 62.816406 212.03125 62.835938 212.15625 62.917969 212.511719 L 63.03125 212.984375 L 63.15625 213.421875 C 63.492188 214.585938 63.972656 215.71875 64.609375 216.78125 C 64.925781 217.3125 65.28125 217.828125 65.679688 218.3125 C 66.078125 218.800781 66.519531 219.257812 67.003906 219.679688 C 67.960938 220.519531 69.105469 221.199219 70.351562 221.613281 C 70.96875 221.820312 71.613281 221.964844 72.261719 222.035156 C 72.910156 222.101562 73.558594 222.097656 74.191406 222.03125 C 75.460938 221.90625 76.644531 221.503906 77.691406 220.972656 C 78.734375 220.4375 79.65625 219.773438 80.460938 219.046875 C 81.265625 218.320312 81.964844 217.535156 82.585938 216.726562 C 83.824219 215.109375 84.761719 213.402344 85.53125 211.699219 C 86.289062 209.992188 86.886719 208.289062 87.371094 206.609375 C 87.859375 204.933594 88.246094 203.28125 88.546875 201.664062 C 88.6875 200.867188 88.828125 200.082031 88.960938 199.304688 C 89.03125 198.929688 89.101562 198.554688 89.167969 198.183594 C 89.242188 197.8125 89.316406 197.445312 89.386719 197.078125 C 89.6875 195.613281 90.011719 194.199219 90.363281 192.839844 C 91.0625 190.125 91.898438 187.640625 92.90625 185.46875 C 93.910156 183.300781 95.121094 181.457031 96.542969 180.144531 C 97.253906 179.492188 98.019531 178.984375 98.796875 178.625 C 99.578125 178.261719 100.367188 178.058594 101.125 177.957031 C 101.882812 177.859375 102.601562 177.867188 103.257812 177.925781 C 103.914062 177.980469 104.511719 178.085938 105.042969 178.203125 C 106.105469 178.445312 106.90625 178.714844 107.441406 178.898438 C 107.976562 179.089844 108.25 179.195312 108.25 179.195312 C 108.25 179.195312 107.992188 179.058594 107.480469 178.808594 C 106.964844 178.5625 106.199219 178.195312 105.144531 177.835938 C 104.09375 177.488281 102.734375 177.121094 101.0625 177.164062 C 100.230469 177.191406 99.324219 177.324219 98.40625 177.652344 C 97.492188 177.972656 96.566406 178.472656 95.703125 179.132812 C 94.839844 179.792969 94.019531 180.601562 93.277344 181.527344 C 92.90625 181.988281 92.546875 182.476562 92.203125 182.988281 C 91.859375 183.5 91.527344 184.035156 91.210938 184.589844 C 90.574219 185.699219 89.992188 186.890625 89.453125 188.148438 C 88.90625 189.40625 88.410156 190.730469 87.9375 192.109375 C 87.460938 193.488281 87.027344 194.925781 86.617188 196.414062 C 86.515625 196.785156 86.414062 197.160156 86.3125 197.539062 C 86.214844 197.917969 86.117188 198.300781 86.019531 198.6875 C 85.832031 199.4375 85.644531 200.203125 85.453125 200.972656 C 85.054688 202.484375 84.601562 204.015625 84.054688 205.539062 C 83.511719 207.066406 82.871094 208.582031 82.109375 210.050781 C 81.339844 211.503906 80.457031 212.921875 79.398438 214.15625 C 78.871094 214.773438 78.300781 215.339844 77.695312 215.828125 C 77.089844 216.324219 76.441406 216.722656 75.78125 217.019531 C 74.457031 217.597656 73.105469 217.695312 71.902344 217.214844 C 70.695312 216.75 69.617188 215.707031 68.890625 214.332031 C 68.523438 213.644531 68.242188 212.882812 68.039062 212.078125 L 67.964844 211.773438 L 67.910156 211.5 C 67.878906 211.355469 67.820312 210.96875 67.796875 210.828125 C 67.71875 210.3125 67.636719 209.792969 67.558594 209.273438 C 67.222656 207.1875 66.839844 205.066406 66.34375 202.929688 C 66.101562 201.859375 65.816406 200.785156 65.519531 199.710938 C 65.214844 198.636719 64.875 197.570312 64.519531 196.507812 C 64.15625 195.445312 63.773438 194.390625 63.371094 193.339844 C 62.96875 192.296875 62.550781 191.253906 62.121094 190.21875 C 60.40625 186.085938 58.53125 182.027344 56.683594 177.902344 C 55.761719 175.839844 54.835938 173.769531 53.90625 171.683594 C 53.441406 170.644531 52.976562 169.601562 52.511719 168.554688 C 52.28125 168.03125 52.046875 167.507812 51.816406 166.980469 C 51.59375 166.46875 51.367188 165.957031 51.152344 165.441406 C 49.40625 161.3125 47.925781 157.039062 46.734375 152.691406 C 45.554688 148.34375 44.675781 143.90625 44.277344 139.472656 C 44.179688 138.367188 44.105469 137.257812 44.070312 136.15625 C 44.035156 135.054688 44.035156 133.953125 44.074219 132.863281 C 44.152344 130.683594 44.386719 128.53125 44.816406 126.464844 C 45.25 124.394531 45.886719 122.410156 46.757812 120.59375 C 47.632812 118.78125 48.75 117.144531 50.105469 115.761719 C 51.457031 114.378906 53.050781 113.261719 54.808594 112.40625 C 54.917969 112.355469 55.027344 112.296875 55.132812 112.246094 L 55.445312 112.109375 L 55.753906 111.972656 C 55.867188 111.921875 56.011719 111.867188 56.140625 111.816406 L 56.539062 111.660156 L 56.640625 111.625 C 56.648438 111.621094 56.648438 111.621094 56.652344 111.617188 C 56.65625 111.617188 56.664062 111.613281 56.671875 111.609375 L 56.851562 111.546875 C 57.089844 111.460938 57.332031 111.382812 57.570312 111.300781 C 58.53125 110.992188 59.503906 110.746094 60.484375 110.5625 C 64.402344 109.820312 68.417969 110.234375 72.328125 111.378906 C 74.285156 111.949219 76.214844 112.6875 78.125 113.511719 C 80.035156 114.34375 81.925781 115.246094 83.816406 116.164062 C 85.707031 117.085938 87.597656 118.023438 89.515625 118.914062 C 91.429688 119.804688 93.371094 120.648438 95.359375 121.363281 C 97.347656 122.082031 99.386719 122.679688 101.460938 123.074219 C 102.058594 123.191406 102.660156 123.285156 103.265625 123.363281 C 102.035156 123.746094 100.753906 124.105469 99.445312 124.453125 C 98.761719 124.636719 98.066406 124.800781 97.371094 124.976562 C 96.671875 125.140625 95.972656 125.304688 95.269531 125.460938 C 93.859375 125.769531 92.445312 126.0625 91.046875 126.316406 C 89.652344 126.582031 88.269531 126.804688 86.929688 127.015625 C 85.589844 127.222656 84.289062 127.40625 83.054688 127.5625 C 81.820312 127.722656 80.648438 127.851562 79.570312 127.964844 C 77.40625 128.191406 75.597656 128.328125 74.332031 128.410156 C 73.0625 128.492188 72.335938 128.519531 72.335938 128.519531 C 72.335938 128.519531 73.0625 128.546875 74.335938 128.558594 C 75.605469 128.570312 77.421875 128.570312 79.605469 128.503906 C 80.695312 128.472656 81.878906 128.429688 83.125 128.363281 C 84.375 128.300781 85.691406 128.210938 87.054688 128.105469 C 88.417969 127.996094 89.824219 127.875 91.253906 127.714844 C 92.679688 127.5625 94.128906 127.371094 95.578125 127.167969 C 96.300781 127.0625 97.023438 126.949219 97.746094 126.835938 C 98.464844 126.710938 99.183594 126.597656 99.890625 126.460938 C 101.3125 126.199219 102.707031 125.914062 104.050781 125.601562 C 104.71875 125.445312 105.382812 125.296875 106.023438 125.125 C 106.667969 124.953125 107.300781 124.800781 107.910156 124.617188 C 109.136719 124.277344 110.28125 123.914062 111.339844 123.5625 C 111.867188 123.378906 112.371094 123.203125 112.851562 123.03125 C 113.328125 122.847656 113.777344 122.675781 114.203125 122.511719 C 114.300781 122.472656 114.398438 122.4375 114.496094 122.398438 C 116.117188 121.882812 117.652344 121.234375 119.082031 120.476562 C 119.925781 120.035156 120.710938 119.554688 121.414062 119.144531 C 122.136719 118.726562 122.855469 118.328125 123.578125 117.953125 C 125.015625 117.203125 126.453125 116.554688 127.871094 116.035156 C 129.289062 115.519531 130.703125 115.148438 132.054688 114.996094 C 133.410156 114.851562 134.703125 114.941406 135.824219 115.339844 C 136.945312 115.730469 137.886719 116.445312 138.613281 117.359375 C 139.339844 118.269531 139.863281 119.347656 140.25 120.441406 C 140.636719 121.539062 140.886719 122.65625 141.0625 123.742188 C 141.234375 124.828125 141.34375 125.882812 141.40625 126.890625 C 141.523438 128.90625 141.484375 130.726562 141.414062 132.3125 C 141.335938 133.894531 141.222656 135.242188 141.113281 136.335938 C 141 137.425781 140.90625 138.265625 140.832031 138.828125 C 140.761719 139.394531 140.722656 139.683594 140.722656 139.683594 C 140.722656 139.683594 140.792969 139.398438 140.933594 138.847656 C 141.066406 138.292969 141.265625 137.472656 141.492188 136.394531 C 141.71875 135.3125 141.976562 133.976562 142.210938 132.386719 C 142.445312 130.800781 142.660156 128.960938 142.726562 126.871094 C 142.757812 125.828125 142.753906 124.722656 142.664062 123.554688 " fill-opacity="1" fill-rule="nonzero"/></g><g clip-path="url(#17cefc092f)"><path fill="#0cc0df" d="M 352.148438 115.210938 C 334.558594 116.351562 333.632812 117.277344 332.492188 134.867188 C 331.355469 117.277344 330.429688 116.351562 312.835938 115.210938 C 330.429688 114.074219 331.355469 113.148438 332.492188 95.558594 C 333.632812 113.148438 334.558594 114.074219 352.148438 115.210938 " fill-opacity="1" fill-rule="nonzero"/></g><path fill="#0cc0df" d="M 328.683594 137.742188 C 322.492188 138.140625 322.164062 138.46875 321.761719 144.664062 C 321.359375 138.46875 321.035156 138.140625 314.839844 137.742188 C 321.035156 137.339844 321.359375 137.015625 321.761719 130.816406 C 322.164062 137.015625 322.492188 137.339844 328.683594 137.742188 " fill-opacity="1" fill-rule="nonzero"/><path fill="#0cc0df" d="M 296.164062 120.6875 C 291.261719 121.003906 291.003906 121.261719 290.6875 126.164062 C 290.367188 121.261719 290.113281 121.003906 285.210938 120.6875 C 290.113281 120.371094 290.367188 120.113281 290.6875 115.210938 C 291.003906 120.113281 291.261719 120.371094 296.164062 120.6875 " fill-opacity="1" fill-rule="nonzero"/><g transform="matrix(1, 0, 0, 1, 141, 157)"><g clip-path="url(#233a7e186d)"><g fill="#1a477e" fill-opacity="1"><g transform="translate(0.277715, 16.082673)"><g><path d="M 10.484375 -14.125 C 11.148438 -13.894531 11.710938 -13.476562 12.171875 -12.875 C 12.640625 -12.269531 12.875 -11.582031 12.875 -10.8125 C 12.875 -10.03125 12.65625 -9.363281 12.21875 -8.8125 C 11.789062 -8.257812 11.328125 -7.882812 10.828125 -7.6875 C 11.796875 -7.40625 12.492188 -6.941406 12.921875 -6.296875 C 13.359375 -5.648438 13.578125 -4.953125 13.578125 -4.203125 C 13.578125 -3.359375 13.332031 -2.5625 12.84375 -1.8125 C 12.363281 -1.0625 11.710938 -0.554688 10.890625 -0.296875 C 10.523438 -0.179688 10.066406 -0.101562 9.515625 -0.0625 C 8.960938 -0.0195312 8.289062 0 7.5 0 L 1.46875 0 L 1.46875 -14.4375 L 7.5 -14.4375 C 8.195312 -14.4375 8.773438 -14.414062 9.234375 -14.375 C 9.703125 -14.34375 10.117188 -14.257812 10.484375 -14.125 Z M 10.03125 -10.34375 C 10.03125 -10.71875 9.9375 -11.03125 9.75 -11.28125 C 9.570312 -11.53125 9.34375 -11.71875 9.0625 -11.84375 C 8.800781 -11.945312 8.304688 -12 7.578125 -12 L 4.375 -12 L 4.375 -8.6875 L 7.640625 -8.6875 C 9.234375 -8.6875 10.03125 -9.238281 10.03125 -10.34375 Z M 9.03125 -2.515625 C 9.476562 -2.585938 9.84375 -2.773438 10.125 -3.078125 C 10.414062 -3.378906 10.5625 -3.78125 10.5625 -4.28125 C 10.5625 -4.84375 10.421875 -5.265625 10.140625 -5.546875 C 9.859375 -5.835938 9.476562 -6.023438 9 -6.109375 C 8.53125 -6.203125 7.910156 -6.25 7.140625 -6.25 L 4.375 -6.25 L 4.375 -2.4375 L 7.40625 -2.4375 C 8.101562 -2.4375 8.644531 -2.460938 9.03125 -2.515625 Z M 9.03125 -2.515625 "/></g></g></g><g fill="#1a477e" fill-opacity="1"><g transform="translate(14.82799, 16.082673)"><g><path d="M 12.1875 -12 L 4.375 -12 L 4.375 -8.796875 L 11.640625 -8.796875 L 11.640625 -6.359375 L 4.375 -6.359375 L 4.375 -2.4375 L 12.453125 -2.4375 L 12.453125 0 L 1.46875 0 L 1.46875 -14.4375 L 12.1875 -14.4375 Z M 12.1875 -12 "/></g></g></g><g fill="#1a477e" fill-opacity="1"><g transform="translate(28.269864, 16.082673)"><g><path d="M 11.15625 -13.984375 C 11.757812 -13.722656 12.257812 -13.269531 12.65625 -12.625 C 13.0625 -11.976562 13.265625 -11.234375 13.265625 -10.390625 C 13.265625 -9.316406 12.929688 -8.410156 12.265625 -7.671875 C 11.609375 -6.941406 10.671875 -6.503906 9.453125 -6.359375 C 9.984375 -5.992188 10.382812 -5.691406 10.65625 -5.453125 C 10.9375 -5.222656 11.238281 -4.894531 11.5625 -4.46875 C 11.894531 -4.039062 12.300781 -3.4375 12.78125 -2.65625 L 14.4375 0 L 10.953125 0 L 8.609375 -3.515625 C 8.085938 -4.296875 7.679688 -4.847656 7.390625 -5.171875 C 7.097656 -5.503906 6.789062 -5.726562 6.46875 -5.84375 C 6.144531 -5.96875 5.691406 -6.03125 5.109375 -6.03125 L 4.375 -6.03125 L 4.375 0 L 1.46875 0 L 1.46875 -14.4375 L 7.78125 -14.4375 C 8.46875 -14.4375 9.085938 -14.40625 9.640625 -14.34375 C 10.203125 -14.289062 10.707031 -14.171875 11.15625 -13.984375 Z M 9.09375 -8.5 C 9.445312 -8.601562 9.726562 -8.800781 9.9375 -9.09375 C 10.15625 -9.394531 10.265625 -9.765625 10.265625 -10.203125 C 10.265625 -10.972656 9.9375 -11.503906 9.28125 -11.796875 C 9.101562 -11.878906 8.882812 -11.929688 8.625 -11.953125 C 8.375 -11.984375 7.941406 -12 7.328125 -12 L 4.375 -12 L 4.375 -8.328125 L 6.9375 -8.328125 C 7.988281 -8.328125 8.707031 -8.382812 9.09375 -8.5 Z M 9.09375 -8.5 "/></g></g></g><g fill="#1a477e" fill-opacity="1"><g transform="translate(42.820139, 16.082673)"><g><path d="M 8.125 -14.6875 C 9.78125 -14.6875 11.140625 -14.335938 12.203125 -13.640625 C 13.265625 -12.953125 13.957031 -11.890625 14.28125 -10.453125 L 11.375 -9.90625 C 11.15625 -10.65625 10.753906 -11.222656 10.171875 -11.609375 C 9.585938 -11.992188 8.914062 -12.1875 8.15625 -12.1875 C 7.375 -12.1875 6.6875 -12.035156 6.09375 -11.734375 C 5.5 -11.441406 5.03125 -11.015625 4.6875 -10.453125 C 4.207031 -9.691406 3.96875 -8.671875 3.96875 -7.390625 C 3.96875 -5.867188 4.3125 -4.632812 5 -3.6875 C 5.6875 -2.738281 6.722656 -2.265625 8.109375 -2.265625 C 8.703125 -2.265625 9.289062 -2.375 9.875 -2.59375 C 10.46875 -2.8125 11.015625 -3.109375 11.515625 -3.484375 L 11.515625 -5.3125 L 8.1875 -5.3125 L 8.1875 -7.75 L 14.46875 -7.75 L 14.46875 -2 C 13.738281 -1.320312 12.804688 -0.78125 11.671875 -0.375 C 10.535156 0.03125 9.410156 0.234375 8.296875 0.234375 C 6.679688 0.234375 5.320312 -0.0976562 4.21875 -0.765625 C 3.125 -1.441406 2.304688 -2.347656 1.765625 -3.484375 C 1.234375 -4.617188 0.96875 -5.878906 0.96875 -7.265625 C 0.96875 -8.609375 1.226562 -9.835938 1.75 -10.953125 C 2.28125 -12.078125 3.082031 -12.976562 4.15625 -13.65625 C 5.226562 -14.34375 6.550781 -14.6875 8.125 -14.6875 Z M 8.125 -14.6875 "/></g></g></g><g fill="#1a477e" fill-opacity="1"><g transform="translate(58.498969, 16.082673)"><g><path d="M 6.515625 -14.6875 C 8.117188 -14.6875 9.425781 -14.328125 10.4375 -13.609375 C 11.457031 -12.898438 11.992188 -11.800781 12.046875 -10.3125 L 9.125 -10.1875 C 9.019531 -10.863281 8.769531 -11.378906 8.375 -11.734375 C 7.976562 -12.097656 7.34375 -12.28125 6.46875 -12.28125 C 5.863281 -12.28125 5.304688 -12.171875 4.796875 -11.953125 C 4.285156 -11.742188 4.03125 -11.378906 4.03125 -10.859375 C 4.03125 -10.410156 4.257812 -10.054688 4.71875 -9.796875 C 5.175781 -9.535156 5.988281 -9.269531 7.15625 -9 C 8.25 -8.738281 9.144531 -8.460938 9.84375 -8.171875 C 10.550781 -7.890625 11.160156 -7.425781 11.671875 -6.78125 C 12.191406 -6.144531 12.453125 -5.285156 12.453125 -4.203125 C 12.453125 -3.648438 12.320312 -3.0625 12.0625 -2.4375 C 11.800781 -1.820312 11.382812 -1.289062 10.8125 -0.84375 C 10.382812 -0.5 9.816406 -0.234375 9.109375 -0.046875 C 8.398438 0.140625 7.582031 0.234375 6.65625 0.234375 C 4.851562 0.234375 3.46875 -0.171875 2.5 -0.984375 C 1.53125 -1.796875 0.9375 -3.035156 0.71875 -4.703125 L 3.546875 -4.96875 C 3.859375 -3.125 4.910156 -2.203125 6.703125 -2.203125 C 7.640625 -2.203125 8.347656 -2.398438 8.828125 -2.796875 C 9.304688 -3.191406 9.546875 -3.660156 9.546875 -4.203125 C 9.546875 -4.585938 9.425781 -4.894531 9.1875 -5.125 C 8.945312 -5.351562 8.578125 -5.550781 8.078125 -5.71875 C 7.578125 -5.882812 6.785156 -6.097656 5.703125 -6.359375 C 4.359375 -6.648438 3.28125 -7.144531 2.46875 -7.84375 C 1.65625 -8.539062 1.25 -9.476562 1.25 -10.65625 C 1.25 -11.28125 1.410156 -11.898438 1.734375 -12.515625 C 2.054688 -13.128906 2.609375 -13.644531 3.390625 -14.0625 C 4.179688 -14.476562 5.222656 -14.6875 6.515625 -14.6875 Z M 6.515625 -14.6875 "/></g></g></g><g fill="#1a477e" fill-opacity="1"><g transform="translate(71.940843, 16.082673)"><g><path d="M 7.6875 -14.6875 C 9.164062 -14.6875 10.414062 -14.328125 11.4375 -13.609375 C 12.457031 -12.890625 13.132812 -11.835938 13.46875 -10.453125 L 10.59375 -9.765625 C 10.414062 -10.515625 10.054688 -11.101562 9.515625 -11.53125 C 8.984375 -11.96875 8.328125 -12.1875 7.546875 -12.1875 C 6.410156 -12.1875 5.523438 -11.785156 4.890625 -10.984375 C 4.265625 -10.179688 3.953125 -8.960938 3.953125 -7.328125 C 3.953125 -5.816406 4.207031 -4.59375 4.71875 -3.65625 C 5.238281 -2.726562 6.164062 -2.265625 7.5 -2.265625 C 8.351562 -2.265625 9.039062 -2.53125 9.5625 -3.0625 C 10.082031 -3.601562 10.457031 -4.351562 10.6875 -5.3125 L 13.515625 -4.421875 C 13.128906 -2.847656 12.414062 -1.675781 11.375 -0.90625 C 10.34375 -0.144531 9.0625 0.234375 7.53125 0.234375 C 6.21875 0.234375 5.0625 -0.0664062 4.0625 -0.671875 C 3.070312 -1.273438 2.304688 -2.125 1.765625 -3.21875 C 1.222656 -4.320312 0.953125 -5.613281 0.953125 -7.09375 C 0.953125 -8.414062 1.175781 -9.648438 1.625 -10.796875 C 2.082031 -11.953125 2.816406 -12.890625 3.828125 -13.609375 C 4.835938 -14.328125 6.125 -14.6875 7.6875 -14.6875 Z M 7.6875 -14.6875 "/></g></g></g><g fill="#1a477e" fill-opacity="1"><g transform="translate(86.491118, 16.082673)"><g><path d="M 4.375 -8.75 L 10.09375 -8.75 L 10.09375 -14.4375 L 12.984375 -14.4375 L 12.984375 0 L 10.09375 0 L 10.09375 -6.3125 L 4.375 -6.3125 L 4.375 0 L 1.46875 0 L 1.46875 -14.4375 L 4.375 -14.4375 Z M 4.375 -8.75 "/></g></g></g><g fill="#1a477e" fill-opacity="1"><g transform="translate(101.041393, 16.082673)"><g><path d="M 12.1875 -12 L 4.375 -12 L 4.375 -8.796875 L 11.640625 -8.796875 L 11.640625 -6.359375 L 4.375 -6.359375 L 4.375 -2.4375 L 12.453125 -2.4375 L 12.453125 0 L 1.46875 0 L 1.46875 -14.4375 L 12.1875 -14.4375 Z M 12.1875 -12 "/></g></g></g><g fill="#1a477e" fill-opacity="1"><g transform="translate(114.483267, 16.082673)"><g><path d="M 10.234375 -4.796875 L 10.234375 -14.4375 L 12.9375 -14.4375 L 12.9375 0 L 10 0 L 4.203125 -9.421875 L 4.203125 0 L 1.5 0 L 1.5 -14.4375 L 4.3125 -14.4375 Z M 10.234375 -4.796875 "/></g></g></g><g fill="#1a477e" fill-opacity="1"><g transform="translate(129.033543, 16.082673)"><g><path d="M 4.375 -8.75 L 10.09375 -8.75 L 10.09375 -14.4375 L 12.984375 -14.4375 L 12.984375 0 L 10.09375 0 L 10.09375 -6.3125 L 4.375 -6.3125 L 4.375 0 L 1.46875 0 L 1.46875 -14.4375 L 4.375 -14.4375 Z M 4.375 -8.75 "/></g></g></g><g fill="#1a477e" fill-opacity="1"><g transform="translate(143.583818, 16.082673)"><g><path d="M 7.84375 -14.6875 C 9.363281 -14.6875 10.644531 -14.363281 11.6875 -13.71875 C 12.738281 -13.070312 13.523438 -12.179688 14.046875 -11.046875 C 14.578125 -9.921875 14.84375 -8.640625 14.84375 -7.203125 C 14.84375 -5.671875 14.5625 -4.34375 14 -3.21875 C 13.445312 -2.101562 12.644531 -1.25 11.59375 -0.65625 C 10.550781 -0.0625 9.316406 0.234375 7.890625 0.234375 C 6.390625 0.234375 5.113281 -0.0703125 4.0625 -0.6875 C 3.007812 -1.300781 2.210938 -2.160156 1.671875 -3.265625 C 1.140625 -4.378906 0.875 -5.671875 0.875 -7.140625 C 0.875 -8.660156 1.140625 -9.988281 1.671875 -11.125 C 2.210938 -12.257812 3.003906 -13.132812 4.046875 -13.75 C 5.085938 -14.375 6.351562 -14.6875 7.84375 -14.6875 Z M 3.875 -7.21875 C 3.875 -6.09375 4.054688 -5.160156 4.421875 -4.421875 C 4.785156 -3.679688 5.269531 -3.132812 5.875 -2.78125 C 6.476562 -2.4375 7.140625 -2.265625 7.859375 -2.265625 C 8.535156 -2.265625 9.171875 -2.414062 9.765625 -2.71875 C 10.359375 -3.03125 10.851562 -3.554688 11.25 -4.296875 C 11.644531 -5.046875 11.84375 -6.035156 11.84375 -7.265625 C 11.84375 -8.703125 11.523438 -9.878906 10.890625 -10.796875 C 10.253906 -11.722656 9.238281 -12.1875 7.84375 -12.1875 C 6.457031 -12.1875 5.445312 -11.722656 4.8125 -10.796875 C 4.1875 -9.867188 3.875 -8.675781 3.875 -7.21875 Z M 3.875 -7.21875 "/></g></g></g><g fill="#1a477e" fill-opacity="1"><g transform="translate(159.262647, 16.082673)"><g><path d="M 12.1875 -12 L 4.375 -12 L 4.375 -8.796875 L 11.640625 -8.796875 L 11.640625 -6.359375 L 4.375 -6.359375 L 4.375 -2.4375 L 12.453125 -2.4375 L 12.453125 0 L 1.46875 0 L 1.46875 -14.4375 L 12.1875 -14.4375 Z M 12.1875 -12 "/></g></g></g><g fill="#1a477e" fill-opacity="1"><g transform="translate(172.704521, 16.082673)"><g><path d="M 4.421875 -8.03125 L 10.328125 -14.4375 L 14.234375 -14.4375 L 8.8125 -8.8125 L 14.546875 0 L 10.765625 0 L 6.796875 -6.78125 L 4.421875 -4.359375 L 4.421875 0 L 1.515625 0 L 1.515625 -14.4375 L 4.421875 -14.4375 Z M 4.421875 -8.03125 "/></g></g></g><g fill="#27aae1" fill-opacity="1"><g transform="translate(0.277715, 43.77461)"><g><path d="M 10.5625 -13.703125 C 11.550781 -13.128906 12.296875 -12.289062 12.796875 -11.1875 C 13.304688 -10.09375 13.5625 -8.804688 13.5625 -7.328125 C 13.5625 -6.097656 13.378906 -4.953125 13.015625 -3.890625 C 12.648438 -2.828125 12.097656 -1.988281 11.359375 -1.375 C 10.804688 -0.914062 10.191406 -0.570312 9.515625 -0.34375 C 8.847656 -0.113281 8.007812 0 7 0 L 1.609375 0 L 1.609375 -14.4375 L 6.859375 -14.4375 C 7.703125 -14.4375 8.398438 -14.382812 8.953125 -14.28125 C 9.515625 -14.1875 10.050781 -13.992188 10.5625 -13.703125 Z M 11.578125 -7.34375 C 11.578125 -8.8125 11.347656 -9.941406 10.890625 -10.734375 C 10.429688 -11.535156 9.882812 -12.070312 9.25 -12.34375 C 8.625 -12.613281 7.832031 -12.75 6.875 -12.75 L 3.53125 -12.75 L 3.53125 -1.6875 L 6.703125 -1.6875 C 7.640625 -1.6875 8.425781 -1.796875 9.0625 -2.015625 C 9.707031 -2.242188 10.285156 -2.773438 10.796875 -3.609375 C 11.316406 -4.441406 11.578125 -5.6875 11.578125 -7.34375 Z M 11.578125 -7.34375 "/></g></g></g><g fill="#27aae1" fill-opacity="1"><g transform="translate(14.82799, 43.77461)"><g><path d="M 12.046875 -12.75 L 3.515625 -12.75 L 3.515625 -8.3125 L 11.5 -8.3125 L 11.5 -6.609375 L 3.515625 -6.609375 L 3.515625 -1.6875 L 12.359375 -1.6875 L 12.359375 0 L 1.59375 0 L 1.59375 -14.4375 L 12.046875 -14.4375 Z M 12.046875 -12.75 "/></g></g></g><g fill="#27aae1" fill-opacity="1"><g transform="translate(28.269864, 43.77461)"><g><path d="M 11.140625 -3.109375 L 11.140625 -14.4375 L 12.96875 -14.4375 L 12.96875 0 L 11.015625 0 L 3.421875 -11.34375 L 3.421875 0 L 1.59375 0 L 1.59375 -14.4375 L 3.546875 -14.4375 Z M 11.140625 -3.109375 "/></g></g></g><g fill="#27aae1" fill-opacity="1"><g transform="translate(42.820139, 43.77461)"><g><path d="M 11.90625 -12.75 L 7.125 -12.75 L 7.125 0 L 5.203125 0 L 5.203125 -12.75 L 0.4375 -12.75 L 0.4375 -14.4375 L 11.90625 -14.4375 Z M 11.90625 -12.75 "/></g></g></g><g fill="#27aae1" fill-opacity="1"><g transform="translate(55.133459, 43.77461)"><g><path d="M 13.5 0 L 11.3125 0 L 9.625 -4.390625 L 3.59375 -4.390625 L 2.015625 0 L -0.015625 0 L 5.53125 -14.4375 L 7.578125 -14.4375 Z M 5.734375 -10.171875 L 4.15625 -5.9375 L 9.03125 -5.9375 L 7.265625 -10.6875 C 7.046875 -11.25 6.796875 -12 6.515625 -12.9375 C 6.515625 -12.863281 6.429688 -12.519531 6.265625 -11.90625 C 6.109375 -11.300781 5.929688 -10.722656 5.734375 -10.171875 Z M 5.734375 -10.171875 "/></g></g></g><g fill="#27aae1" fill-opacity="1"><g transform="translate(68.575333, 43.77461)"><g><path d="M 3.421875 -1.6875 L 10.546875 -1.6875 L 10.546875 0 L 1.515625 0 L 1.515625 -14.4375 L 3.421875 -14.4375 Z M 3.421875 -1.6875 "/></g></g></g><g fill="#27aae1" fill-opacity="1"><g transform="translate(79.780251, 43.77461)"><g/></g></g><g fill="#27aae1" fill-opacity="1"><g transform="translate(85.382717, 43.77461)"><g><path d="M 10.28125 -13.578125 C 10.820312 -13.171875 11.195312 -12.710938 11.40625 -12.203125 C 11.613281 -11.703125 11.71875 -11.257812 11.71875 -10.875 C 11.71875 -9.414062 11.039062 -8.351562 9.6875 -7.6875 C 10.613281 -7.40625 11.296875 -6.953125 11.734375 -6.328125 C 12.171875 -5.710938 12.390625 -4.972656 12.390625 -4.109375 C 12.390625 -3.453125 12.21875 -2.785156 11.875 -2.109375 C 11.539062 -1.429688 10.957031 -0.894531 10.125 -0.5 C 9.414062 -0.164062 8.425781 0 7.15625 0 L 1.5 0 L 1.5 -14.4375 L 7.046875 -14.4375 C 7.847656 -14.4375 8.488281 -14.363281 8.96875 -14.21875 C 9.457031 -14.082031 9.894531 -13.867188 10.28125 -13.578125 Z M 9.828125 -10.53125 C 9.828125 -11.40625 9.546875 -11.992188 8.984375 -12.296875 C 8.429688 -12.597656 7.59375 -12.75 6.46875 -12.75 L 3.40625 -12.75 L 3.40625 -8.375 L 6.65625 -8.375 C 7.75 -8.375 8.550781 -8.546875 9.0625 -8.890625 C 9.570312 -9.234375 9.828125 -9.78125 9.828125 -10.53125 Z M 9.140625 -2.03125 C 9.597656 -2.257812 9.921875 -2.566406 10.109375 -2.953125 C 10.304688 -3.347656 10.40625 -3.753906 10.40625 -4.171875 C 10.40625 -4.734375 10.265625 -5.207031 9.984375 -5.59375 C 9.703125 -5.988281 9.300781 -6.273438 8.78125 -6.453125 C 8.34375 -6.597656 7.71875 -6.671875 6.90625 -6.671875 L 3.40625 -6.671875 L 3.40625 -1.6875 L 7.265625 -1.6875 C 7.703125 -1.6875 8.0625 -1.710938 8.34375 -1.765625 C 8.632812 -1.828125 8.898438 -1.914062 9.140625 -2.03125 Z M 9.140625 -2.03125 "/></g></g></g><g fill="#27aae1" fill-opacity="1"><g transform="translate(98.824591, 43.77461)"><g><path d="M 3.8125 0 L 1.796875 0 L 1.796875 -2.015625 L 3.8125 -2.015625 Z M 3.8125 0 "/></g></g></g><g fill="#27aae1" fill-opacity="1"><g transform="translate(104.427057, 43.77461)"><g><path d="M 5.984375 -3.828125 C 6.273438 -3.078125 6.515625 -2.332031 6.703125 -1.59375 C 6.941406 -2.414062 7.203125 -3.203125 7.484375 -3.953125 L 11.375 -14.4375 L 13.328125 -14.4375 L 7.6875 0 L 5.703125 0 L 0.125 -14.4375 L 2.203125 -14.4375 Z M 5.984375 -3.828125 "/></g></g></g></g></g></svg>